<mxfile host="65bd71144e">
    <diagram name="Page-1" id="NUBxwsJxYckVUcK_FwWz">
        <mxGraphModel dx="8381" dy="7482" grid="1" gridSize="10" guides="1" tooltips="1" connect="1" arrows="1" fold="1" page="1" pageScale="1" pageWidth="1654" pageHeight="1169" math="0" shadow="0">
            <root>
                <mxCell id="0"/>
                <mxCell id="1" parent="0"/>
                <UserObject label="" plantUmlData="{&#10;  &quot;data&quot;: &quot;@startuml Next Step Class Diagram\n\n' Style configurations\nskinparam classAttributeIconSize 0\nskinparam monochrome true\nskinparam shadowing false\nskinparam linetype ortho\n\n' Base User class\nabstract class User {\n    -UUID id\n    -String name\n    -String email\n    -String password\n    -String role\n    +UUID getId()\n    +String getName()\n    +String getEmail()\n    +String getRole()\n}\n\n' Student entity\nclass Student {\n    -String contact\n    -String school\n    -String district\n    -String stream\n    -Double zScore\n    -Map&lt;String, String&gt; olResults\n    -Map&lt;String, String&gt; alResults\n    -String university\n    -String course\n    -Double gpa\n    -List&lt;String&gt; interests\n    -List&lt;String&gt; skills\n    -List&lt;String&gt; strengths\n    -List&lt;CareerPrediction&gt; predictions\n    +Map&lt;String, String&gt; getOLResults()\n    +Map&lt;String, String&gt; getALResults()\n    +Double getZScore()\n    +List&lt;CareerPrediction&gt; getPredictions()\n}\n\n' Institution entity\nclass Institution {\n    -String type\n    -String website\n    -String location\n    -Map&lt;String, String&gt; contactInfo\n    -List&lt;Course&gt; courses\n    +List&lt;Course&gt; getCourses()\n    +String getType()\n    +Map&lt;String, String&gt; getContactInfo()\n}\n\n' Stream entity\nclass Stream {\n    -UUID id\n    -String name\n    -String description\n    -List&lt;String&gt; requiredOLSubjects\n    -Map&lt;String, String&gt; minimumOLGrades\n    -List&lt;Course&gt; possibleCourses\n    -List&lt;String&gt; relatedCareers\n    +List&lt;Course&gt; getPossibleCourses()\n    +Map&lt;String, String&gt; getMinimumGrades()\n}\n\n' Course entity\nclass Course {\n    -UUID id\n    -String name\n    -String description\n    -String duration\n    -Map&lt;String, String&gt; minimumALGrades\n    -Double minimumZScore\n    -List&lt;Institution&gt; offeredBy\n    -List&lt;String&gt; relatedCareers\n    +Double getMinimumZScore()\n    +List&lt;Institution&gt; getOfferedBy()\n}\n\n' Career entity\nclass Career {\n    -String code\n    -String title\n    -String description\n    -String category\n    -List&lt;String&gt; requiredSkills\n    -List&lt;String&gt; relatedCourses\n    -Map&lt;String, String&gt; externalLinks\n    +String getCode()\n    +List&lt;String&gt; getRequiredSkills()\n}\n\n' CareerPrediction value object\nclass CareerPrediction &lt;&lt;ValueObject&gt;&gt; {\n    -String careerPath\n    -Double probability\n    -LocalDateTime predictedAt\n    +Double getProbability()\n    +LocalDateTime getPredictedAt()\n}\n\n' CourseRecommendation entity\nclass CourseRecommendation {\n    -UUID id\n    -UUID studentId\n    -UUID courseId\n    -Double matchScore\n    -Map&lt;String, Object&gt; factors\n    -LocalDateTime createdAt\n    +Double getMatchScore()\n    +Map&lt;String, Object&gt; getFactors()\n}\n\n' StudentResults entity\nclass StudentResults {\n    -UUID studentId\n    -String examType\n    -Map&lt;String, String&gt; results\n    -LocalDateTime examDate\n    +Map&lt;String, String&gt; getResults()\n    +String getExamType()\n}\n\n' Relationships\nUser &lt;|-- Student\nUser &lt;|-- Institution\nStudent \&quot;1\&quot; *-- \&quot;many\&quot; CareerPrediction\nStudent \&quot;1\&quot; *-- \&quot;many\&quot; StudentResults\nStudent \&quot;many\&quot; -- \&quot;1\&quot; Institution : studies at &gt;\nInstitution \&quot;many\&quot; -- \&quot;many\&quot; Course : offers &gt;\nStream \&quot;1\&quot; -- \&quot;many\&quot; Course : contains &gt;\nCourse \&quot;many\&quot; -- \&quot;many\&quot; Career : leads to &gt;\nStudent \&quot;1\&quot; -- \&quot;many\&quot; CourseRecommendation\nCourse \&quot;1\&quot; -- \&quot;many\&quot; CourseRecommendation\n\n' Notes\nnote right of User\n  Base class for all user types\n  with authentication details\nend note\n\nnote right of Student\n  Extends User with academic\n  and personal information\nend note\n\nnote bottom of Career\n  Represents possible career paths\n  with required skills and courses\nend note\n\nnote bottom of CourseRecommendation\n  Generated recommendations\n  based on student profile\nend note\n\n@enduml\n&quot;,&#10;  &quot;format&quot;: &quot;svg&quot;&#10;}" id="eJkWS1ouLvHtY5IzEbgl-1">
                    <mxCell style="shape=image;noLabel=1;verticalAlign=top;aspect=fixed;imageAspect=0;image=data:image/svg+xml,PD94bWwgdmVyc2lvbj0iMS4wIiBlbmNvZGluZz0idXMtYXNjaWkiIHN0YW5kYWxvbmU9Im5vIj8+PHN2ZyB4bWxucz0iaHR0cDovL3d3dy53My5vcmcvMjAwMC9zdmciIHhtbG5zOnhsaW5rPSJodHRwOi8vd3d3LnczLm9yZy8xOTk5L3hsaW5rIiBjb250ZW50U3R5bGVUeXBlPSJ0ZXh0L2NzcyIgaGVpZ2h0PSIxNDE2cHgiIHByZXNlcnZlQXNwZWN0UmF0aW89Im5vbmUiIHN0eWxlPSJ3aWR0aDoxMTU5cHg7aGVpZ2h0OjE0MTZweDtiYWNrZ3JvdW5kOiNGRkZGRkY7IiB2ZXJzaW9uPSIxLjEiIHZpZXdCb3g9IjAgMCAxMTU5IDE0MTYiIHdpZHRoPSIxMTU5cHgiIHpvb21BbmRQYW49Im1hZ25pZnkiPjxkZWZzLz48Zz48IS0tY2xhc3MgVXNlci0tPjxnIGlkPSJlbGVtX1VzZXIiPjxyZWN0IGNvZGVMaW5lPSI4IiBmaWxsPSIjRjFGMUYxIiBoZWlnaHQ9IjE4Mi44NTk0IiBpZD0iVXNlciIgcng9IjIuNSIgcnk9IjIuNSIgc3R5bGU9InN0cm9rZTojMTgxODE4O3N0cm9rZS13aWR0aDowLjU7IiB3aWR0aD0iMTQxIiB4PSI0MzMiIHk9IjciLz48ZWxsaXBzZSBjeD0iNDg1LjI1IiBjeT0iMjMiIGZpbGw9IiNDRENEQ0QiIHJ4PSIxMSIgcnk9IjExIiBzdHlsZT0ic3Ryb2tlOiMxODE4MTg7c3Ryb2tlLXdpZHRoOjEuMDsiLz48cGF0aCBkPSJNNDgxLjgxMjUsMjAuNjI1IEw0ODEuODEyNSwyOC43NSBMNDgzLjU2MjUsMjguNzUgUTQ4My41NjI1LDI4Ljc1IDQ4My41NjI1LDI0LjUgTDQ4Ny4xMjUsMjQuNSBRNDg3LjEyNSwyNC41IDQ4Ny4xMjUsMjguNzUgTDQ4OC44NzUsMjguNzUgTDQ4OC44NzUsMjAuNjI1IEw0ODcuMTI1LDIwLjYyNSBRNDg3LjEyNSwyMC42MjUgNDg3LjEyNSwyMi43NSBMNDgzLjU2MjUsMjIuNzUgUTQ4My41NjI1LDIyLjc1IDQ4My41NjI1LDIwLjYyNSBMNDgxLjgxMjUsMjAuNjI1IFogTTQ4Mi44NzUsMjEuMzEyNSBMNDg0LjYyNSwyMS4zMTI1IFE0ODQuNjI1LDIxLjMxMjUgNDg0LjYyNSwxOC41IEw0ODIuODc1LDE4LjUgUTQ4Mi44NzUsMTguNSA0ODIuODc1LDIxLjMxMjUgWiBNNDg3LjgxMjUsMjEuMzEyNSBRNDg3LjgxMjUsMjEuMzEyNSA0ODcuODEyNSwxOC41IEw0ODYuMDYyNSwxOC41IFE0ODYuMDYyNSwxOC41IDQ4Ni4wNjI1LDIxLjMxMjUgTDQ4Ny44MTI1LDIxLjMxMjUgWiBNNDgzLjkzNzUsMTkuMTg3NSBMNDg2Ljc1LDE5LjE4NzUgTDQ4Ni43NSwxNy40Mzc1IEw0ODMuOTM3NSwxNy40Mzc1IEw0ODMuOTM3NSwxOS4xODc1IFogIiBmaWxsPSIjMDAwMDAwIi8+PHRleHQgZmlsbD0iIzAwMDAwMCIgZm9udC1mYW1pbHk9InNhbnMtc2VyaWYiIGZvbnQtc2l6ZT0iMTQiIGZvbnQtc3R5bGU9Iml0YWxpYyIgbGVuZ3RoQWRqdXN0PSJzcGFjaW5nIiB0ZXh0TGVuZ3RoPSIyOCIgeD0iNTA1Ljc1IiB5PSIyOC43NDIyIj5Vc2VyPC90ZXh0PjxsaW5lIHN0eWxlPSJzdHJva2U6IzE4MTgxODtzdHJva2Utd2lkdGg6MC41OyIgeDE9IjQzNCIgeDI9IjU3MyIgeTE9IjM5IiB5Mj0iMzkiLz48dGV4dCBmaWxsPSIjMDAwMDAwIiBmb250LWZhbWlseT0ic2Fucy1zZXJpZiIgZm9udC1zaXplPSIxNCIgbGVuZ3RoQWRqdXN0PSJzcGFjaW5nIiB0ZXh0TGVuZ3RoPSI1NiIgeD0iNDM5IiB5PSI1Ni4yMzQ0Ij4tVVVJRCBpZDwvdGV4dD48dGV4dCBmaWxsPSIjMDAwMDAwIiBmb250LWZhbWlseT0ic2Fucy1zZXJpZiIgZm9udC1zaXplPSIxNCIgbGVuZ3RoQWRqdXN0PSJzcGFjaW5nIiB0ZXh0TGVuZ3RoPSI4NSIgeD0iNDM5IiB5PSI3MS4yMTg4Ij4tU3RyaW5nIG5hbWU8L3RleHQ+PHRleHQgZmlsbD0iIzAwMDAwMCIgZm9udC1mYW1pbHk9InNhbnMtc2VyaWYiIGZvbnQtc2l6ZT0iMTQiIGxlbmd0aEFkanVzdD0ic3BhY2luZyIgdGV4dExlbmd0aD0iOTIiIHg9IjQzOSIgeT0iODYuMjAzMSI+LVN0cmluZyBlbWFpbDwvdGV4dD48dGV4dCBmaWxsPSIjMDAwMDAwIiBmb250LWZhbWlseT0ic2Fucy1zZXJpZiIgZm9udC1zaXplPSIxNCIgbGVuZ3RoQWRqdXN0PSJzcGFjaW5nIiB0ZXh0TGVuZ3RoPSIxMTMiIHg9IjQzOSIgeT0iMTAxLjE4NzUiPi1TdHJpbmcgcGFzc3dvcmQ8L3RleHQ+PHRleHQgZmlsbD0iIzAwMDAwMCIgZm9udC1mYW1pbHk9InNhbnMtc2VyaWYiIGZvbnQtc2l6ZT0iMTQiIGxlbmd0aEFkanVzdD0ic3BhY2luZyIgdGV4dExlbmd0aD0iODQiIHg9IjQzOSIgeT0iMTE2LjE3MTkiPi1TdHJpbmcgcm9sZTwvdGV4dD48bGluZSBzdHlsZT0ic3Ryb2tlOiMxODE4MTg7c3Ryb2tlLXdpZHRoOjAuNTsiIHgxPSI0MzQiIHgyPSI1NzMiIHkxPSIxMjEuOTIxOSIgeTI9IjEyMS45MjE5Ii8+PHRleHQgZmlsbD0iIzAwMDAwMCIgZm9udC1mYW1pbHk9InNhbnMtc2VyaWYiIGZvbnQtc2l6ZT0iMTQiIGxlbmd0aEFkanVzdD0ic3BhY2luZyIgdGV4dExlbmd0aD0iOTMiIHg9IjQzOSIgeT0iMTM5LjE1NjMiPitVVUlEIGdldElkKCk8L3RleHQ+PHRleHQgZmlsbD0iIzAwMDAwMCIgZm9udC1mYW1pbHk9InNhbnMtc2VyaWYiIGZvbnQtc2l6ZT0iMTQiIGxlbmd0aEFkanVzdD0ic3BhY2luZyIgdGV4dExlbmd0aD0iMTIyIiB4PSI0MzkiIHk9IjE1NC4xNDA2Ij4rU3RyaW5nIGdldE5hbWUoKTwvdGV4dD48dGV4dCBmaWxsPSIjMDAwMDAwIiBmb250LWZhbWlseT0ic2Fucy1zZXJpZiIgZm9udC1zaXplPSIxNCIgbGVuZ3RoQWRqdXN0PSJzcGFjaW5nIiB0ZXh0TGVuZ3RoPSIxMjkiIHg9IjQzOSIgeT0iMTY5LjEyNSI+K1N0cmluZyBnZXRFbWFpbCgpPC90ZXh0Pjx0ZXh0IGZpbGw9IiMwMDAwMDAiIGZvbnQtZmFtaWx5PSJzYW5zLXNlcmlmIiBmb250LXNpemU9IjE0IiBsZW5ndGhBZGp1c3Q9InNwYWNpbmciIHRleHRMZW5ndGg9IjEyMSIgeD0iNDM5IiB5PSIxODQuMTA5NCI+K1N0cmluZyBnZXRSb2xlKCk8L3RleHQ+PC9nPjwhLS1jbGFzcyBTdHVkZW50LS0+PGcgaWQ9ImVsZW1fU3R1ZGVudCI+PHJlY3QgY29kZUxpbmU9IjIxIiBmaWxsPSIjRjFGMUYxIiBoZWlnaHQ9IjMxNy43MTg4IiBpZD0iU3R1ZGVudCIgcng9IjIuNSIgcnk9IjIuNSIgc3R5bGU9InN0cm9rZTojMTgxODE4O3N0cm9rZS13aWR0aDowLjU7IiB3aWR0aD0iMjk0IiB4PSIyNTYuNSIgeT0iMjUwIi8+PGVsbGlwc2UgY3g9IjM3NC43NSIgY3k9IjI2NiIgZmlsbD0iI0MyQzJDMiIgcng9IjExIiByeT0iMTEiIHN0eWxlPSJzdHJva2U6IzE4MTgxODtzdHJva2Utd2lkdGg6MS4wOyIvPjxwYXRoIGQ9Ik0zNzIuMzc1LDI3MC4yNSBMMzcyLjM3NSwyNzIgTDM3Ny4zMTI1LDI3MiBMMzc3LjMxMjUsMjcwLjI1IEwzNzIuMzc1LDI3MC4yNSBaIE0zNzMuMDYyNSwyNzAuOTM3NSBRMzczLjA2MjUsMjcwLjkzNzUgMzczLjA2MjUsMjYxLjc1IEwzNzEuMzEyNSwyNjEuNzUgUTM3MS4zMTI1LDI2MS43NSAzNzEuMzEyNSwyNzAuOTM3NSBMMzczLjA2MjUsMjcwLjkzNzUgWiBNMzc2LjYyNSwyNzAuOTM3NSBMMzc4LjM3NSwyNzAuOTM3NSBRMzc4LjM3NSwyNzAuOTM3NSAzNzguMzc1LDI2OC4xMjUgTDM3Ni42MjUsMjY4LjEyNSBRMzc2LjYyNSwyNjguMTI1IDM3Ni42MjUsMjcwLjkzNzUgWiBNMzc2LjYyNSwyNjEuNzUgUTM3Ni42MjUsMjYxLjc1IDM3Ni42MjUsMjY0LjU2MjUgTDM3OC4zNzUsMjY0LjU2MjUgUTM3OC4zNzUsMjY0LjU2MjUgMzc4LjM3NSwyNjEuNzUgTDM3Ni42MjUsMjYxLjc1IFogTTM3Mi4zNzUsMjYyLjQzNzUgTDM3Ny4zMTI1LDI2Mi40Mzc1IEwzNzcuMzEyNSwyNjAuNjg3NSBMMzcyLjM3NSwyNjAuNjg3NSBMMzcyLjM3NSwyNjIuNDM3NSBaICIgZmlsbD0iIzAwMDAwMCIvPjx0ZXh0IGZpbGw9IiMwMDAwMDAiIGZvbnQtZmFtaWx5PSJzYW5zLXNlcmlmIiBmb250LXNpemU9IjE0IiBsZW5ndGhBZGp1c3Q9InNwYWNpbmciIHRleHRMZW5ndGg9IjQ5IiB4PSIzOTUuMjUiIHk9IjI3MS43NDIyIj5TdHVkZW50PC90ZXh0PjxsaW5lIHN0eWxlPSJzdHJva2U6IzE4MTgxODtzdHJva2Utd2lkdGg6MC41OyIgeDE9IjI1Ny41IiB4Mj0iNTQ5LjUiIHkxPSIyODIiIHkyPSIyODIiLz48dGV4dCBmaWxsPSIjMDAwMDAwIiBmb250LWZhbWlseT0ic2Fucy1zZXJpZiIgZm9udC1zaXplPSIxNCIgbGVuZ3RoQWRqdXN0PSJzcGFjaW5nIiB0ZXh0TGVuZ3RoPSIxMDUiIHg9IjI2Mi41IiB5PSIyOTkuMjM0NCI+LVN0cmluZyBjb250YWN0PC90ZXh0Pjx0ZXh0IGZpbGw9IiMwMDAwMDAiIGZvbnQtZmFtaWx5PSJzYW5zLXNlcmlmIiBmb250LXNpemU9IjE0IiBsZW5ndGhBZGp1c3Q9InNwYWNpbmciIHRleHRMZW5ndGg9Ijk4IiB4PSIyNjIuNSIgeT0iMzE0LjIxODgiPi1TdHJpbmcgc2Nob29sPC90ZXh0Pjx0ZXh0IGZpbGw9IiMwMDAwMDAiIGZvbnQtZmFtaWx5PSJzYW5zLXNlcmlmIiBmb250LXNpemU9IjE0IiBsZW5ndGhBZGp1c3Q9InNwYWNpbmciIHRleHRMZW5ndGg9IjExMiIgeD0iMjYyLjUiIHk9IjMyOS4yMDMxIj4tU3RyaW5nIGRpc3RyaWN0PC90ZXh0Pjx0ZXh0IGZpbGw9IiMwMDAwMDAiIGZvbnQtZmFtaWx5PSJzYW5zLXNlcmlmIiBmb250LXNpemU9IjE0IiBsZW5ndGhBZGp1c3Q9InNwYWNpbmciIHRleHRMZW5ndGg9Ijk5IiB4PSIyNjIuNSIgeT0iMzQ0LjE4NzUiPi1TdHJpbmcgc3RyZWFtPC90ZXh0Pjx0ZXh0IGZpbGw9IiMwMDAwMDAiIGZvbnQtZmFtaWx5PSJzYW5zLXNlcmlmIiBmb250LXNpemU9IjE0IiBsZW5ndGhBZGp1c3Q9InNwYWNpbmciIHRleHRMZW5ndGg9Ijk4IiB4PSIyNjIuNSIgeT0iMzU5LjE3MTkiPi1Eb3VibGUgelNjb3JlPC90ZXh0Pjx0ZXh0IGZpbGw9IiMwMDAwMDAiIGZvbnQtZmFtaWx5PSJzYW5zLXNlcmlmIiBmb250LXNpemU9IjE0IiBsZW5ndGhBZGp1c3Q9InNwYWNpbmciIHRleHRMZW5ndGg9IjIxMCIgeD0iMjYyLjUiIHk9IjM3NC4xNTYzIj4tTWFwJmx0O1N0cmluZywgU3RyaW5nJmd0OyBvbFJlc3VsdHM8L3RleHQ+PHRleHQgZmlsbD0iIzAwMDAwMCIgZm9udC1mYW1pbHk9InNhbnMtc2VyaWYiIGZvbnQtc2l6ZT0iMTQiIGxlbmd0aEFkanVzdD0ic3BhY2luZyIgdGV4dExlbmd0aD0iMjEwIiB4PSIyNjIuNSIgeT0iMzg5LjE0MDYiPi1NYXAmbHQ7U3RyaW5nLCBTdHJpbmcmZ3Q7IGFsUmVzdWx0czwvdGV4dD48dGV4dCBmaWxsPSIjMDAwMDAwIiBmb250LWZhbWlseT0ic2Fucy1zZXJpZiIgZm9udC1zaXplPSIxNCIgbGVuZ3RoQWRqdXN0PSJzcGFjaW5nIiB0ZXh0TGVuZ3RoPSIxMjYiIHg9IjI2Mi41IiB5PSI0MDQuMTI1Ij4tU3RyaW5nIHVuaXZlcnNpdHk8L3RleHQ+PHRleHQgZmlsbD0iIzAwMDAwMCIgZm9udC1mYW1pbHk9InNhbnMtc2VyaWYiIGZvbnQtc2l6ZT0iMTQiIGxlbmd0aEFkanVzdD0ic3BhY2luZyIgdGV4dExlbmd0aD0iOTgiIHg9IjI2Mi41IiB5PSI0MTkuMTA5NCI+LVN0cmluZyBjb3Vyc2U8L3RleHQ+PHRleHQgZmlsbD0iIzAwMDAwMCIgZm9udC1mYW1pbHk9InNhbnMtc2VyaWYiIGZvbnQtc2l6ZT0iMTQiIGxlbmd0aEFkanVzdD0ic3BhY2luZyIgdGV4dExlbmd0aD0iNzciIHg9IjI2Mi41IiB5PSI0MzQuMDkzOCI+LURvdWJsZSBncGE8L3RleHQ+PHRleHQgZmlsbD0iIzAwMDAwMCIgZm9udC1mYW1pbHk9InNhbnMtc2VyaWYiIGZvbnQtc2l6ZT0iMTQiIGxlbmd0aEFkanVzdD0ic3BhY2luZyIgdGV4dExlbmd0aD0iMTYxIiB4PSIyNjIuNSIgeT0iNDQ5LjA3ODEiPi1MaXN0Jmx0O1N0cmluZyZndDsgaW50ZXJlc3RzPC90ZXh0Pjx0ZXh0IGZpbGw9IiMwMDAwMDAiIGZvbnQtZmFtaWx5PSJzYW5zLXNlcmlmIiBmb250LXNpemU9IjE0IiBsZW5ndGhBZGp1c3Q9InNwYWNpbmciIHRleHRMZW5ndGg9IjE0MCIgeD0iMjYyLjUiIHk9IjQ2NC4wNjI1Ij4tTGlzdCZsdDtTdHJpbmcmZ3Q7IHNraWxsczwvdGV4dD48dGV4dCBmaWxsPSIjMDAwMDAwIiBmb250LWZhbWlseT0ic2Fucy1zZXJpZiIgZm9udC1zaXplPSIxNCIgbGVuZ3RoQWRqdXN0PSJzcGFjaW5nIiB0ZXh0TGVuZ3RoPSIxNjEiIHg9IjI2Mi41IiB5PSI0NzkuMDQ2OSI+LUxpc3QmbHQ7U3RyaW5nJmd0OyBzdHJlbmd0aHM8L3RleHQ+PHRleHQgZmlsbD0iIzAwMDAwMCIgZm9udC1mYW1pbHk9InNhbnMtc2VyaWYiIGZvbnQtc2l6ZT0iMTQiIGxlbmd0aEFkanVzdD0ic3BhY2luZyIgdGV4dExlbmd0aD0iMjQ1IiB4PSIyNjIuNSIgeT0iNDk0LjAzMTMiPi1MaXN0Jmx0O0NhcmVlclByZWRpY3Rpb24mZ3Q7IHByZWRpY3Rpb25zPC90ZXh0PjxsaW5lIHN0eWxlPSJzdHJva2U6IzE4MTgxODtzdHJva2Utd2lkdGg6MC41OyIgeDE9IjI1Ny41IiB4Mj0iNTQ5LjUiIHkxPSI0OTkuNzgxMyIgeTI9IjQ5OS43ODEzIi8+PHRleHQgZmlsbD0iIzAwMDAwMCIgZm9udC1mYW1pbHk9InNhbnMtc2VyaWYiIGZvbnQtc2l6ZT0iMTQiIGxlbmd0aEFkanVzdD0ic3BhY2luZyIgdGV4dExlbmd0aD0iMjQ3IiB4PSIyNjIuNSIgeT0iNTE3LjAxNTYiPitNYXAmbHQ7U3RyaW5nLCBTdHJpbmcmZ3Q7IGdldE9MUmVzdWx0cygpPC90ZXh0Pjx0ZXh0IGZpbGw9IiMwMDAwMDAiIGZvbnQtZmFtaWx5PSJzYW5zLXNlcmlmIiBmb250LXNpemU9IjE0IiBsZW5ndGhBZGp1c3Q9InNwYWNpbmciIHRleHRMZW5ndGg9IjI0NyIgeD0iMjYyLjUiIHk9IjUzMiI+K01hcCZsdDtTdHJpbmcsIFN0cmluZyZndDsgZ2V0QUxSZXN1bHRzKCk8L3RleHQ+PHRleHQgZmlsbD0iIzAwMDAwMCIgZm9udC1mYW1pbHk9InNhbnMtc2VyaWYiIGZvbnQtc2l6ZT0iMTQiIGxlbmd0aEFkanVzdD0ic3BhY2luZyIgdGV4dExlbmd0aD0iMTM1IiB4PSIyNjIuNSIgeT0iNTQ2Ljk4NDQiPitEb3VibGUgZ2V0WlNjb3JlKCk8L3RleHQ+PHRleHQgZmlsbD0iIzAwMDAwMCIgZm9udC1mYW1pbHk9InNhbnMtc2VyaWYiIGZvbnQtc2l6ZT0iMTQiIGxlbmd0aEFkanVzdD0ic3BhY2luZyIgdGV4dExlbmd0aD0iMjgyIiB4PSIyNjIuNSIgeT0iNTYxLjk2ODgiPitMaXN0Jmx0O0NhcmVlclByZWRpY3Rpb24mZ3Q7IGdldFByZWRpY3Rpb25zKCk8L3RleHQ+PC9nPjwhLS1jbGFzcyBJbnN0aXR1dGlvbi0tPjxnIGlkPSJlbGVtX0luc3RpdHV0aW9uIj48cmVjdCBjb2RlTGluZT0iNDMiIGZpbGw9IiNGMUYxRjEiIGhlaWdodD0iMTY3Ljg3NSIgaWQ9Ikluc3RpdHV0aW9uIiByeD0iMi41IiByeT0iMi41IiBzdHlsZT0ic3Ryb2tlOiMxODE4MTg7c3Ryb2tlLXdpZHRoOjAuNTsiIHdpZHRoPSIyNzMiIHg9IjU1NSIgeT0iNjM1LjUiLz48ZWxsaXBzZSBjeD0iNjQ4Ljc1IiBjeT0iNjUxLjUiIGZpbGw9IiNDMkMyQzIiIHJ4PSIxMSIgcnk9IjExIiBzdHlsZT0ic3Ryb2tlOiMxODE4MTg7c3Ryb2tlLXdpZHRoOjEuMDsiLz48cGF0aCBkPSJNNjQ2LjM3NSw2NTUuNzUgTDY0Ni4zNzUsNjU3LjUgTDY1MS4zMTI1LDY1Ny41IEw2NTEuMzEyNSw2NTUuNzUgTDY0Ni4zNzUsNjU1Ljc1IFogTTY0Ny4wNjI1LDY1Ni40Mzc1IFE2NDcuMDYyNSw2NTYuNDM3NSA2NDcuMDYyNSw2NDcuMjUgTDY0NS4zMTI1LDY0Ny4yNSBRNjQ1LjMxMjUsNjQ3LjI1IDY0NS4zMTI1LDY1Ni40Mzc1IEw2NDcuMDYyNSw2NTYuNDM3NSBaIE02NTAuNjI1LDY1Ni40Mzc1IEw2NTIuMzc1LDY1Ni40Mzc1IFE2NTIuMzc1LDY1Ni40Mzc1IDY1Mi4zNzUsNjUzLjYyNSBMNjUwLjYyNSw2NTMuNjI1IFE2NTAuNjI1LDY1My42MjUgNjUwLjYyNSw2NTYuNDM3NSBaIE02NTAuNjI1LDY0Ny4yNSBRNjUwLjYyNSw2NDcuMjUgNjUwLjYyNSw2NTAuMDYyNSBMNjUyLjM3NSw2NTAuMDYyNSBRNjUyLjM3NSw2NTAuMDYyNSA2NTIuMzc1LDY0Ny4yNSBMNjUwLjYyNSw2NDcuMjUgWiBNNjQ2LjM3NSw2NDcuOTM3NSBMNjUxLjMxMjUsNjQ3LjkzNzUgTDY1MS4zMTI1LDY0Ni4xODc1IEw2NDYuMzc1LDY0Ni4xODc1IEw2NDYuMzc1LDY0Ny45Mzc1IFogIiBmaWxsPSIjMDAwMDAwIi8+PHRleHQgZmlsbD0iIzAwMDAwMCIgZm9udC1mYW1pbHk9InNhbnMtc2VyaWYiIGZvbnQtc2l6ZT0iMTQiIGxlbmd0aEFkanVzdD0ic3BhY2luZyIgdGV4dExlbmd0aD0iNzciIHg9IjY2OS4yNSIgeT0iNjU3LjI0MjIiPkluc3RpdHV0aW9uPC90ZXh0PjxsaW5lIHN0eWxlPSJzdHJva2U6IzE4MTgxODtzdHJva2Utd2lkdGg6MC41OyIgeDE9IjU1NiIgeDI9IjgyNyIgeTE9IjY2Ny41IiB5Mj0iNjY3LjUiLz48dGV4dCBmaWxsPSIjMDAwMDAwIiBmb250LWZhbWlseT0ic2Fucy1zZXJpZiIgZm9udC1zaXplPSIxNCIgbGVuZ3RoQWRqdXN0PSJzcGFjaW5nIiB0ZXh0TGVuZ3RoPSI4NCIgeD0iNTYxIiB5PSI2ODQuNzM0NCI+LVN0cmluZyB0eXBlPC90ZXh0Pjx0ZXh0IGZpbGw9IiMwMDAwMDAiIGZvbnQtZmFtaWx5PSJzYW5zLXNlcmlmIiBmb250LXNpemU9IjE0IiBsZW5ndGhBZGp1c3Q9InNwYWNpbmciIHRleHRMZW5ndGg9IjEwNiIgeD0iNTYxIiB5PSI2OTkuNzE4OCI+LVN0cmluZyB3ZWJzaXRlPC90ZXh0Pjx0ZXh0IGZpbGw9IiMwMDAwMDAiIGZvbnQtZmFtaWx5PSJzYW5zLXNlcmlmIiBmb250LXNpemU9IjE0IiBsZW5ndGhBZGp1c3Q9InNwYWNpbmciIHRleHRMZW5ndGg9IjExMiIgeD0iNTYxIiB5PSI3MTQuNzAzMSI+LVN0cmluZyBsb2NhdGlvbjwvdGV4dD48dGV4dCBmaWxsPSIjMDAwMDAwIiBmb250LWZhbWlseT0ic2Fucy1zZXJpZiIgZm9udC1zaXplPSIxNCIgbGVuZ3RoQWRqdXN0PSJzcGFjaW5nIiB0ZXh0TGVuZ3RoPSIyMjQiIHg9IjU2MSIgeT0iNzI5LjY4NzUiPi1NYXAmbHQ7U3RyaW5nLCBTdHJpbmcmZ3Q7IGNvbnRhY3RJbmZvPC90ZXh0Pjx0ZXh0IGZpbGw9IiMwMDAwMDAiIGZvbnQtZmFtaWx5PSJzYW5zLXNlcmlmIiBmb250LXNpemU9IjE0IiBsZW5ndGhBZGp1c3Q9InNwYWNpbmciIHRleHRMZW5ndGg9IjE0NyIgeD0iNTYxIiB5PSI3NDQuNjcxOSI+LUxpc3QmbHQ7Q291cnNlJmd0OyBjb3Vyc2VzPC90ZXh0PjxsaW5lIHN0eWxlPSJzdHJva2U6IzE4MTgxODtzdHJva2Utd2lkdGg6MC41OyIgeDE9IjU1NiIgeDI9IjgyNyIgeTE9Ijc1MC40MjE5IiB5Mj0iNzUwLjQyMTkiLz48dGV4dCBmaWxsPSIjMDAwMDAwIiBmb250LWZhbWlseT0ic2Fucy1zZXJpZiIgZm9udC1zaXplPSIxNCIgbGVuZ3RoQWRqdXN0PSJzcGFjaW5nIiB0ZXh0TGVuZ3RoPSIxODQiIHg9IjU2MSIgeT0iNzY3LjY1NjMiPitMaXN0Jmx0O0NvdXJzZSZndDsgZ2V0Q291cnNlcygpPC90ZXh0Pjx0ZXh0IGZpbGw9IiMwMDAwMDAiIGZvbnQtZmFtaWx5PSJzYW5zLXNlcmlmIiBmb250LXNpemU9IjE0IiBsZW5ndGhBZGp1c3Q9InNwYWNpbmciIHRleHRMZW5ndGg9IjEyMSIgeD0iNTYxIiB5PSI3ODIuNjQwNiI+K1N0cmluZyBnZXRUeXBlKCk8L3RleHQ+PHRleHQgZmlsbD0iIzAwMDAwMCIgZm9udC1mYW1pbHk9InNhbnMtc2VyaWYiIGZvbnQtc2l6ZT0iMTQiIGxlbmd0aEFkanVzdD0ic3BhY2luZyIgdGV4dExlbmd0aD0iMjYxIiB4PSI1NjEiIHk9Ijc5Ny42MjUiPitNYXAmbHQ7U3RyaW5nLCBTdHJpbmcmZ3Q7IGdldENvbnRhY3RJbmZvKCk8L3RleHQ+PC9nPjwhLS1jbGFzcyBTdHJlYW0tLT48ZyBpZD0iZWxlbV9TdHJlYW0iPjxyZWN0IGNvZGVMaW5lPSI1NSIgZmlsbD0iI0YxRjFGMSIgaGVpZ2h0PSIxODIuODU5NCIgaWQ9IlN0cmVhbSIgcng9IjIuNSIgcnk9IjIuNSIgc3R5bGU9InN0cm9rZTojMTgxODE4O3N0cm9rZS13aWR0aDowLjU7IiB3aWR0aD0iMjg5IiB4PSI4NjMiIHk9IjYyOCIvPjxlbGxpcHNlIGN4PSI5ODEuNzUiIGN5PSI2NDQiIGZpbGw9IiNDMkMyQzIiIHJ4PSIxMSIgcnk9IjExIiBzdHlsZT0ic3Ryb2tlOiMxODE4MTg7c3Ryb2tlLXdpZHRoOjEuMDsiLz48cGF0aCBkPSJNOTc5LjM3NSw2NDguMjUgTDk3OS4zNzUsNjUwIEw5ODQuMzEyNSw2NTAgTDk4NC4zMTI1LDY0OC4yNSBMOTc5LjM3NSw2NDguMjUgWiBNOTgwLjA2MjUsNjQ4LjkzNzUgUTk4MC4wNjI1LDY0OC45Mzc1IDk4MC4wNjI1LDYzOS43NSBMOTc4LjMxMjUsNjM5Ljc1IFE5NzguMzEyNSw2MzkuNzUgOTc4LjMxMjUsNjQ4LjkzNzUgTDk4MC4wNjI1LDY0OC45Mzc1IFogTTk4My42MjUsNjQ4LjkzNzUgTDk4NS4zNzUsNjQ4LjkzNzUgUTk4NS4zNzUsNjQ4LjkzNzUgOTg1LjM3NSw2NDYuMTI1IEw5ODMuNjI1LDY0Ni4xMjUgUTk4My42MjUsNjQ2LjEyNSA5ODMuNjI1LDY0OC45Mzc1IFogTTk4My42MjUsNjM5Ljc1IFE5ODMuNjI1LDYzOS43NSA5ODMuNjI1LDY0Mi41NjI1IEw5ODUuMzc1LDY0Mi41NjI1IFE5ODUuMzc1LDY0Mi41NjI1IDk4NS4zNzUsNjM5Ljc1IEw5ODMuNjI1LDYzOS43NSBaIE05NzkuMzc1LDY0MC40Mzc1IEw5ODQuMzEyNSw2NDAuNDM3NSBMOTg0LjMxMjUsNjM4LjY4NzUgTDk3OS4zNzUsNjM4LjY4NzUgTDk3OS4zNzUsNjQwLjQzNzUgWiAiIGZpbGw9IiMwMDAwMDAiLz48dGV4dCBmaWxsPSIjMDAwMDAwIiBmb250LWZhbWlseT0ic2Fucy1zZXJpZiIgZm9udC1zaXplPSIxNCIgbGVuZ3RoQWRqdXN0PSJzcGFjaW5nIiB0ZXh0TGVuZ3RoPSI0MyIgeD0iMTAwMi4yNSIgeT0iNjQ5Ljc0MjIiPlN0cmVhbTwvdGV4dD48bGluZSBzdHlsZT0ic3Ryb2tlOiMxODE4MTg7c3Ryb2tlLXdpZHRoOjAuNTsiIHgxPSI4NjQiIHgyPSIxMTUxIiB5MT0iNjYwIiB5Mj0iNjYwIi8+PHRleHQgZmlsbD0iIzAwMDAwMCIgZm9udC1mYW1pbHk9InNhbnMtc2VyaWYiIGZvbnQtc2l6ZT0iMTQiIGxlbmd0aEFkanVzdD0ic3BhY2luZyIgdGV4dExlbmd0aD0iNTYiIHg9Ijg2OSIgeT0iNjc3LjIzNDQiPi1VVUlEIGlkPC90ZXh0Pjx0ZXh0IGZpbGw9IiMwMDAwMDAiIGZvbnQtZmFtaWx5PSJzYW5zLXNlcmlmIiBmb250LXNpemU9IjE0IiBsZW5ndGhBZGp1c3Q9InNwYWNpbmciIHRleHRMZW5ndGg9Ijg1IiB4PSI4NjkiIHk9IjY5Mi4yMTg4Ij4tU3RyaW5nIG5hbWU8L3RleHQ+PHRleHQgZmlsbD0iIzAwMDAwMCIgZm9udC1mYW1pbHk9InNhbnMtc2VyaWYiIGZvbnQtc2l6ZT0iMTQiIGxlbmd0aEFkanVzdD0ic3BhY2luZyIgdGV4dExlbmd0aD0iMTMzIiB4PSI4NjkiIHk9IjcwNy4yMDMxIj4tU3RyaW5nIGRlc2NyaXB0aW9uPC90ZXh0Pjx0ZXh0IGZpbGw9IiMwMDAwMDAiIGZvbnQtZmFtaWx5PSJzYW5zLXNlcmlmIiBmb250LXNpemU9IjE0IiBsZW5ndGhBZGp1c3Q9InNwYWNpbmciIHRleHRMZW5ndGg9IjIyNCIgeD0iODY5IiB5PSI3MjIuMTg3NSI+LUxpc3QmbHQ7U3RyaW5nJmd0OyByZXF1aXJlZE9MU3ViamVjdHM8L3RleHQ+PHRleHQgZmlsbD0iIzAwMDAwMCIgZm9udC1mYW1pbHk9InNhbnMtc2VyaWYiIGZvbnQtc2l6ZT0iMTQiIGxlbmd0aEFkanVzdD0ic3BhY2luZyIgdGV4dExlbmd0aD0iMjU1IiB4PSI4NjkiIHk9IjczNy4xNzE5Ij4tTWFwJmx0O1N0cmluZywgU3RyaW5nJmd0OyBtaW5pbXVtT0xHcmFkZXM8L3RleHQ+PHRleHQgZmlsbD0iIzAwMDAwMCIgZm9udC1mYW1pbHk9InNhbnMtc2VyaWYiIGZvbnQtc2l6ZT0iMTQiIGxlbmd0aEFkanVzdD0ic3BhY2luZyIgdGV4dExlbmd0aD0iMjAzIiB4PSI4NjkiIHk9Ijc1Mi4xNTYzIj4tTGlzdCZsdDtDb3Vyc2UmZ3Q7IHBvc3NpYmxlQ291cnNlczwvdGV4dD48dGV4dCBmaWxsPSIjMDAwMDAwIiBmb250LWZhbWlseT0ic2Fucy1zZXJpZiIgZm9udC1zaXplPSIxNCIgbGVuZ3RoQWRqdXN0PSJzcGFjaW5nIiB0ZXh0TGVuZ3RoPSIxOTYiIHg9Ijg2OSIgeT0iNzY3LjE0MDYiPi1MaXN0Jmx0O1N0cmluZyZndDsgcmVsYXRlZENhcmVlcnM8L3RleHQ+PGxpbmUgc3R5bGU9InN0cm9rZTojMTgxODE4O3N0cm9rZS13aWR0aDowLjU7IiB4MT0iODY0IiB4Mj0iMTE1MSIgeTE9Ijc3Mi44OTA2IiB5Mj0iNzcyLjg5MDYiLz48dGV4dCBmaWxsPSIjMDAwMDAwIiBmb250LWZhbWlseT0ic2Fucy1zZXJpZiIgZm9udC1zaXplPSIxNCIgbGVuZ3RoQWRqdXN0PSJzcGFjaW5nIiB0ZXh0TGVuZ3RoPSIyNDAiIHg9Ijg2OSIgeT0iNzkwLjEyNSI+K0xpc3QmbHQ7Q291cnNlJmd0OyBnZXRQb3NzaWJsZUNvdXJzZXMoKTwvdGV4dD48dGV4dCBmaWxsPSIjMDAwMDAwIiBmb250LWZhbWlseT0ic2Fucy1zZXJpZiIgZm9udC1zaXplPSIxNCIgbGVuZ3RoQWRqdXN0PSJzcGFjaW5nIiB0ZXh0TGVuZ3RoPSIyNzciIHg9Ijg2OSIgeT0iODA1LjEwOTQiPitNYXAmbHQ7U3RyaW5nLCBTdHJpbmcmZ3Q7IGdldE1pbmltdW1HcmFkZXMoKTwvdGV4dD48L2c+PCEtLWNsYXNzIENvdXJzZS0tPjxnIGlkPSJlbGVtX0NvdXJzZSI+PHJlY3QgY29kZUxpbmU9IjY4IiBmaWxsPSIjRjFGMUYxIiBoZWlnaHQ9IjE5Ny44NDM4IiBpZD0iQ291cnNlIiByeD0iMi41IiByeT0iMi41IiBzdHlsZT0ic3Ryb2tlOiMxODE4MTg7c3Ryb2tlLXdpZHRoOjAuNTsiIHdpZHRoPSIyNjciIHg9IjU1OCIgeT0iODcxIi8+PGVsbGlwc2UgY3g9IjY2Ni4yNSIgY3k9Ijg4NyIgZmlsbD0iI0MyQzJDMiIgcng9IjExIiByeT0iMTEiIHN0eWxlPSJzdHJva2U6IzE4MTgxODtzdHJva2Utd2lkdGg6MS4wOyIvPjxwYXRoIGQ9Ik02NjMuODc1LDg5MS4yNSBMNjYzLjg3NSw4OTMgTDY2OC44MTI1LDg5MyBMNjY4LjgxMjUsODkxLjI1IEw2NjMuODc1LDg5MS4yNSBaIE02NjQuNTYyNSw4OTEuOTM3NSBRNjY0LjU2MjUsODkxLjkzNzUgNjY0LjU2MjUsODgyLjc1IEw2NjIuODEyNSw4ODIuNzUgUTY2Mi44MTI1LDg4Mi43NSA2NjIuODEyNSw4OTEuOTM3NSBMNjY0LjU2MjUsODkxLjkzNzUgWiBNNjY4LjEyNSw4OTEuOTM3NSBMNjY5Ljg3NSw4OTEuOTM3NSBRNjY5Ljg3NSw4OTEuOTM3NSA2NjkuODc1LDg4OS4xMjUgTDY2OC4xMjUsODg5LjEyNSBRNjY4LjEyNSw4ODkuMTI1IDY2OC4xMjUsODkxLjkzNzUgWiBNNjY4LjEyNSw4ODIuNzUgUTY2OC4xMjUsODgyLjc1IDY2OC4xMjUsODg1LjU2MjUgTDY2OS44NzUsODg1LjU2MjUgUTY2OS44NzUsODg1LjU2MjUgNjY5Ljg3NSw4ODIuNzUgTDY2OC4xMjUsODgyLjc1IFogTTY2My44NzUsODgzLjQzNzUgTDY2OC44MTI1LDg4My40Mzc1IEw2NjguODEyNSw4ODEuNjg3NSBMNjYzLjg3NSw4ODEuNjg3NSBMNjYzLjg3NSw4ODMuNDM3NSBaICIgZmlsbD0iIzAwMDAwMCIvPjx0ZXh0IGZpbGw9IiMwMDAwMDAiIGZvbnQtZmFtaWx5PSJzYW5zLXNlcmlmIiBmb250LXNpemU9IjE0IiBsZW5ndGhBZGp1c3Q9InNwYWNpbmciIHRleHRMZW5ndGg9IjQyIiB4PSI2ODYuNzUiIHk9Ijg5Mi43NDIyIj5Db3Vyc2U8L3RleHQ+PGxpbmUgc3R5bGU9InN0cm9rZTojMTgxODE4O3N0cm9rZS13aWR0aDowLjU7IiB4MT0iNTU5IiB4Mj0iODI0IiB5MT0iOTAzIiB5Mj0iOTAzIi8+PHRleHQgZmlsbD0iIzAwMDAwMCIgZm9udC1mYW1pbHk9InNhbnMtc2VyaWYiIGZvbnQtc2l6ZT0iMTQiIGxlbmd0aEFkanVzdD0ic3BhY2luZyIgdGV4dExlbmd0aD0iNTYiIHg9IjU2NCIgeT0iOTIwLjIzNDQiPi1VVUlEIGlkPC90ZXh0Pjx0ZXh0IGZpbGw9IiMwMDAwMDAiIGZvbnQtZmFtaWx5PSJzYW5zLXNlcmlmIiBmb250LXNpemU9IjE0IiBsZW5ndGhBZGp1c3Q9InNwYWNpbmciIHRleHRMZW5ndGg9Ijg1IiB4PSI1NjQiIHk9IjkzNS4yMTg4Ij4tU3RyaW5nIG5hbWU8L3RleHQ+PHRleHQgZmlsbD0iIzAwMDAwMCIgZm9udC1mYW1pbHk9InNhbnMtc2VyaWYiIGZvbnQtc2l6ZT0iMTQiIGxlbmd0aEFkanVzdD0ic3BhY2luZyIgdGV4dExlbmd0aD0iMTMzIiB4PSI1NjQiIHk9Ijk1MC4yMDMxIj4tU3RyaW5nIGRlc2NyaXB0aW9uPC90ZXh0Pjx0ZXh0IGZpbGw9IiMwMDAwMDAiIGZvbnQtZmFtaWx5PSJzYW5zLXNlcmlmIiBmb250LXNpemU9IjE0IiBsZW5ndGhBZGp1c3Q9InNwYWNpbmciIHRleHRMZW5ndGg9IjExMiIgeD0iNTY0IiB5PSI5NjUuMTg3NSI+LVN0cmluZyBkdXJhdGlvbjwvdGV4dD48dGV4dCBmaWxsPSIjMDAwMDAwIiBmb250LWZhbWlseT0ic2Fucy1zZXJpZiIgZm9udC1zaXplPSIxNCIgbGVuZ3RoQWRqdXN0PSJzcGFjaW5nIiB0ZXh0TGVuZ3RoPSIyNTUiIHg9IjU2NCIgeT0iOTgwLjE3MTkiPi1NYXAmbHQ7U3RyaW5nLCBTdHJpbmcmZ3Q7IG1pbmltdW1BTEdyYWRlczwvdGV4dD48dGV4dCBmaWxsPSIjMDAwMDAwIiBmb250LWZhbWlseT0ic2Fucy1zZXJpZiIgZm9udC1zaXplPSIxNCIgbGVuZ3RoQWRqdXN0PSJzcGFjaW5nIiB0ZXh0TGVuZ3RoPSIxNTAiIHg9IjU2NCIgeT0iOTk1LjE1NjMiPi1Eb3VibGUgbWluaW11bVpTY29yZTwvdGV4dD48dGV4dCBmaWxsPSIjMDAwMDAwIiBmb250LWZhbWlseT0ic2Fucy1zZXJpZiIgZm9udC1zaXplPSIxNCIgbGVuZ3RoQWRqdXN0PSJzcGFjaW5nIiB0ZXh0TGVuZ3RoPSIxOTYiIHg9IjU2NCIgeT0iMTAxMC4xNDA2Ij4tTGlzdCZsdDtJbnN0aXR1dGlvbiZndDsgb2ZmZXJlZEJ5PC90ZXh0Pjx0ZXh0IGZpbGw9IiMwMDAwMDAiIGZvbnQtZmFtaWx5PSJzYW5zLXNlcmlmIiBmb250LXNpemU9IjE0IiBsZW5ndGhBZGp1c3Q9InNwYWNpbmciIHRleHRMZW5ndGg9IjE5NiIgeD0iNTY0IiB5PSIxMDI1LjEyNSI+LUxpc3QmbHQ7U3RyaW5nJmd0OyByZWxhdGVkQ2FyZWVyczwvdGV4dD48bGluZSBzdHlsZT0ic3Ryb2tlOiMxODE4MTg7c3Ryb2tlLXdpZHRoOjAuNTsiIHgxPSI1NTkiIHgyPSI4MjQiIHkxPSIxMDMwLjg3NSIgeTI9IjEwMzAuODc1Ii8+PHRleHQgZmlsbD0iIzAwMDAwMCIgZm9udC1mYW1pbHk9InNhbnMtc2VyaWYiIGZvbnQtc2l6ZT0iMTQiIGxlbmd0aEFkanVzdD0ic3BhY2luZyIgdGV4dExlbmd0aD0iMTg2IiB4PSI1NjQiIHk9IjEwNDguMTA5NCI+K0RvdWJsZSBnZXRNaW5pbXVtWlNjb3JlKCk8L3RleHQ+PHRleHQgZmlsbD0iIzAwMDAwMCIgZm9udC1mYW1pbHk9InNhbnMtc2VyaWYiIGZvbnQtc2l6ZT0iMTQiIGxlbmd0aEFkanVzdD0ic3BhY2luZyIgdGV4dExlbmd0aD0iMjMzIiB4PSI1NjQiIHk9IjEwNjMuMDkzOCI+K0xpc3QmbHQ7SW5zdGl0dXRpb24mZ3Q7IGdldE9mZmVyZWRCeSgpPC90ZXh0PjwvZz48IS0tY2xhc3MgQ2FyZWVyLS0+PGcgaWQ9ImVsZW1fQ2FyZWVyIj48cmVjdCBjb2RlTGluZT0iODIiIGZpbGw9IiNGMUYxRjEiIGhlaWdodD0iMTgyLjg1OTQiIGlkPSJDYXJlZXIiIHJ4PSIyLjUiIHJ5PSIyLjUiIHN0eWxlPSJzdHJva2U6IzE4MTgxODtzdHJva2Utd2lkdGg6MC41OyIgd2lkdGg9IjI1MCIgeD0iNTY2LjUiIHk9IjExMjkiLz48ZWxsaXBzZSBjeD0iNjY2LjI1IiBjeT0iMTE0NSIgZmlsbD0iI0MyQzJDMiIgcng9IjExIiByeT0iMTEiIHN0eWxlPSJzdHJva2U6IzE4MTgxODtzdHJva2Utd2lkdGg6MS4wOyIvPjxwYXRoIGQ9Ik02NjMuODc1LDExNDkuMjUgTDY2My44NzUsMTE1MSBMNjY4LjgxMjUsMTE1MSBMNjY4LjgxMjUsMTE0OS4yNSBMNjYzLjg3NSwxMTQ5LjI1IFogTTY2NC41NjI1LDExNDkuOTM3NSBRNjY0LjU2MjUsMTE0OS45Mzc1IDY2NC41NjI1LDExNDAuNzUgTDY2Mi44MTI1LDExNDAuNzUgUTY2Mi44MTI1LDExNDAuNzUgNjYyLjgxMjUsMTE0OS45Mzc1IEw2NjQuNTYyNSwxMTQ5LjkzNzUgWiBNNjY4LjEyNSwxMTQ5LjkzNzUgTDY2OS44NzUsMTE0OS45Mzc1IFE2NjkuODc1LDExNDkuOTM3NSA2NjkuODc1LDExNDcuMTI1IEw2NjguMTI1LDExNDcuMTI1IFE2NjguMTI1LDExNDcuMTI1IDY2OC4xMjUsMTE0OS45Mzc1IFogTTY2OC4xMjUsMTE0MC43NSBRNjY4LjEyNSwxMTQwLjc1IDY2OC4xMjUsMTE0My41NjI1IEw2NjkuODc1LDExNDMuNTYyNSBRNjY5Ljg3NSwxMTQzLjU2MjUgNjY5Ljg3NSwxMTQwLjc1IEw2NjguMTI1LDExNDAuNzUgWiBNNjYzLjg3NSwxMTQxLjQzNzUgTDY2OC44MTI1LDExNDEuNDM3NSBMNjY4LjgxMjUsMTEzOS42ODc1IEw2NjMuODc1LDExMzkuNjg3NSBMNjYzLjg3NSwxMTQxLjQzNzUgWiAiIGZpbGw9IiMwMDAwMDAiLz48dGV4dCBmaWxsPSIjMDAwMDAwIiBmb250LWZhbWlseT0ic2Fucy1zZXJpZiIgZm9udC1zaXplPSIxNCIgbGVuZ3RoQWRqdXN0PSJzcGFjaW5nIiB0ZXh0TGVuZ3RoPSI0MiIgeD0iNjg2Ljc1IiB5PSIxMTUwLjc0MjIiPkNhcmVlcjwvdGV4dD48bGluZSBzdHlsZT0ic3Ryb2tlOiMxODE4MTg7c3Ryb2tlLXdpZHRoOjAuNTsiIHgxPSI1NjcuNSIgeDI9IjgxNS41IiB5MT0iMTE2MSIgeTI9IjExNjEiLz48dGV4dCBmaWxsPSIjMDAwMDAwIiBmb250LWZhbWlseT0ic2Fucy1zZXJpZiIgZm9udC1zaXplPSIxNCIgbGVuZ3RoQWRqdXN0PSJzcGFjaW5nIiB0ZXh0TGVuZ3RoPSI4NCIgeD0iNTcyLjUiIHk9IjExNzguMjM0NCI+LVN0cmluZyBjb2RlPC90ZXh0Pjx0ZXh0IGZpbGw9IiMwMDAwMDAiIGZvbnQtZmFtaWx5PSJzYW5zLXNlcmlmIiBmb250LXNpemU9IjE0IiBsZW5ndGhBZGp1c3Q9InNwYWNpbmciIHRleHRMZW5ndGg9IjkxIiB4PSI1NzIuNSIgeT0iMTE5My4yMTg4Ij4tU3RyaW5nIHRpdGxlPC90ZXh0Pjx0ZXh0IGZpbGw9IiMwMDAwMDAiIGZvbnQtZmFtaWx5PSJzYW5zLXNlcmlmIiBmb250LXNpemU9IjE0IiBsZW5ndGhBZGp1c3Q9InNwYWNpbmciIHRleHRMZW5ndGg9IjEzMyIgeD0iNTcyLjUiIHk9IjEyMDguMjAzMSI+LVN0cmluZyBkZXNjcmlwdGlvbjwvdGV4dD48dGV4dCBmaWxsPSIjMDAwMDAwIiBmb250LWZhbWlseT0ic2Fucy1zZXJpZiIgZm9udC1zaXplPSIxNCIgbGVuZ3RoQWRqdXN0PSJzcGFjaW5nIiB0ZXh0TGVuZ3RoPSIxMTIiIHg9IjU3Mi41IiB5PSIxMjIzLjE4NzUiPi1TdHJpbmcgY2F0ZWdvcnk8L3RleHQ+PHRleHQgZmlsbD0iIzAwMDAwMCIgZm9udC1mYW1pbHk9InNhbnMtc2VyaWYiIGZvbnQtc2l6ZT0iMTQiIGxlbmd0aEFkanVzdD0ic3BhY2luZyIgdGV4dExlbmd0aD0iMTk2IiB4PSI1NzIuNSIgeT0iMTIzOC4xNzE5Ij4tTGlzdCZsdDtTdHJpbmcmZ3Q7IHJlcXVpcmVkU2tpbGxzPC90ZXh0Pjx0ZXh0IGZpbGw9IiMwMDAwMDAiIGZvbnQtZmFtaWx5PSJzYW5zLXNlcmlmIiBmb250LXNpemU9IjE0IiBsZW5ndGhBZGp1c3Q9InNwYWNpbmciIHRleHRMZW5ndGg9IjE5NiIgeD0iNTcyLjUiIHk9IjEyNTMuMTU2MyI+LUxpc3QmbHQ7U3RyaW5nJmd0OyByZWxhdGVkQ291cnNlczwvdGV4dD48dGV4dCBmaWxsPSIjMDAwMDAwIiBmb250LWZhbWlseT0ic2Fucy1zZXJpZiIgZm9udC1zaXplPSIxNCIgbGVuZ3RoQWRqdXN0PSJzcGFjaW5nIiB0ZXh0TGVuZ3RoPSIyMzgiIHg9IjU3Mi41IiB5PSIxMjY4LjE0MDYiPi1NYXAmbHQ7U3RyaW5nLCBTdHJpbmcmZ3Q7IGV4dGVybmFsTGlua3M8L3RleHQ+PGxpbmUgc3R5bGU9InN0cm9rZTojMTgxODE4O3N0cm9rZS13aWR0aDowLjU7IiB4MT0iNTY3LjUiIHgyPSI4MTUuNSIgeTE9IjEyNzMuODkwNiIgeTI9IjEyNzMuODkwNiIvPjx0ZXh0IGZpbGw9IiMwMDAwMDAiIGZvbnQtZmFtaWx5PSJzYW5zLXNlcmlmIiBmb250LXNpemU9IjE0IiBsZW5ndGhBZGp1c3Q9InNwYWNpbmciIHRleHRMZW5ndGg9IjEyMSIgeD0iNTcyLjUiIHk9IjEyOTEuMTI1Ij4rU3RyaW5nIGdldENvZGUoKTwvdGV4dD48dGV4dCBmaWxsPSIjMDAwMDAwIiBmb250LWZhbWlseT0ic2Fucy1zZXJpZiIgZm9udC1zaXplPSIxNCIgbGVuZ3RoQWRqdXN0PSJzcGFjaW5nIiB0ZXh0TGVuZ3RoPSIyMzMiIHg9IjU3Mi41IiB5PSIxMzA2LjEwOTQiPitMaXN0Jmx0O1N0cmluZyZndDsgZ2V0UmVxdWlyZWRTa2lsbHMoKTwvdGV4dD48L2c+PCEtLWNsYXNzIENhcmVlclByZWRpY3Rpb24tLT48ZyBpZD0iZWxlbV9DYXJlZXJQcmVkaWN0aW9uIj48cmVjdCBjb2RlTGluZT0iOTUiIGZpbGw9IiNGMUYxRjEiIGhlaWdodD0iMTI4Ljc1IiBpZD0iQ2FyZWVyUHJlZGljdGlvbiIgcng9IjIuNSIgcnk9IjIuNSIgc3R5bGU9InN0cm9rZTojMTgxODE4O3N0cm9rZS13aWR0aDowLjU7IiB3aWR0aD0iMjMyIiB4PSIyODcuNSIgeT0iNjU1Ii8+PGVsbGlwc2UgY3g9IjM0My4yNSIgY3k9IjY3My45MTQxIiBmaWxsPSIjQzJDMkMyIiByeD0iMTEiIHJ5PSIxMSIgc3R5bGU9InN0cm9rZTojMTgxODE4O3N0cm9rZS13aWR0aDoxLjA7Ii8+PHBhdGggZD0iTTM0MC44NzUsNjc4LjE2NDEgTDM0MC44NzUsNjc5LjkxNDEgTDM0NS44MTI1LDY3OS45MTQxIEwzNDUuODEyNSw2NzguMTY0MSBMMzQwLjg3NSw2NzguMTY0MSBaIE0zNDEuNTYyNSw2NzguODUxNiBRMzQxLjU2MjUsNjc4Ljg1MTYgMzQxLjU2MjUsNjY5LjY2NDEgTDMzOS44MTI1LDY2OS42NjQxIFEzMzkuODEyNSw2NjkuNjY0MSAzMzkuODEyNSw2NzguODUxNiBMMzQxLjU2MjUsNjc4Ljg1MTYgWiBNMzQ1LjEyNSw2NzguODUxNiBMMzQ2Ljg3NSw2NzguODUxNiBRMzQ2Ljg3NSw2NzguODUxNiAzNDYuODc1LDY3Ni4wMzkxIEwzNDUuMTI1LDY3Ni4wMzkxIFEzNDUuMTI1LDY3Ni4wMzkxIDM0NS4xMjUsNjc4Ljg1MTYgWiBNMzQ1LjEyNSw2NjkuNjY0MSBRMzQ1LjEyNSw2NjkuNjY0MSAzNDUuMTI1LDY3Mi40NzY2IEwzNDYuODc1LDY3Mi40NzY2IFEzNDYuODc1LDY3Mi40NzY2IDM0Ni44NzUsNjY5LjY2NDEgTDM0NS4xMjUsNjY5LjY2NDEgWiBNMzQwLjg3NSw2NzAuMzUxNiBMMzQ1LjgxMjUsNjcwLjM1MTYgTDM0NS44MTI1LDY2OC42MDE2IEwzNDAuODc1LDY2OC42MDE2IEwzNDAuODc1LDY3MC4zNTE2IFogIiBmaWxsPSIjMDAwMDAwIi8+PHRleHQgZmlsbD0iIzAwMDAwMCIgZm9udC1mYW1pbHk9InNhbnMtc2VyaWYiIGZvbnQtc2l6ZT0iMTIiIGZvbnQtc3R5bGU9Iml0YWxpYyIgbGVuZ3RoQWRqdXN0PSJzcGFjaW5nIiB0ZXh0TGVuZ3RoPSI4NSIgeD0iMzc3LjI1IiB5PSI2NzEuMzQzOCI+JiMxNzE7VmFsdWVPYmplY3QmIzE4Nzs8L3RleHQ+PHRleHQgZmlsbD0iIzAwMDAwMCIgZm9udC1mYW1pbHk9InNhbnMtc2VyaWYiIGZvbnQtc2l6ZT0iMTQiIGxlbmd0aEFkanVzdD0ic3BhY2luZyIgdGV4dExlbmd0aD0iMTEyIiB4PSIzNjMuNzUiIHk9IjY4Ni4wNzgxIj5DYXJlZXJQcmVkaWN0aW9uPC90ZXh0PjxsaW5lIHN0eWxlPSJzdHJva2U6IzE4MTgxODtzdHJva2Utd2lkdGg6MC41OyIgeDE9IjI4OC41IiB4Mj0iNTE4LjUiIHkxPSI2OTIuODI4MSIgeTI9IjY5Mi44MjgxIi8+PHRleHQgZmlsbD0iIzAwMDAwMCIgZm9udC1mYW1pbHk9InNhbnMtc2VyaWYiIGZvbnQtc2l6ZT0iMTQiIGxlbmd0aEFkanVzdD0ic3BhY2luZyIgdGV4dExlbmd0aD0iMTI2IiB4PSIyOTMuNSIgeT0iNzEwLjA2MjUiPi1TdHJpbmcgY2FyZWVyUGF0aDwvdGV4dD48dGV4dCBmaWxsPSIjMDAwMDAwIiBmb250LWZhbWlseT0ic2Fucy1zZXJpZiIgZm9udC1zaXplPSIxNCIgbGVuZ3RoQWRqdXN0PSJzcGFjaW5nIiB0ZXh0TGVuZ3RoPSIxMzMiIHg9IjI5My41IiB5PSI3MjUuMDQ2OSI+LURvdWJsZSBwcm9iYWJpbGl0eTwvdGV4dD48dGV4dCBmaWxsPSIjMDAwMDAwIiBmb250LWZhbWlseT0ic2Fucy1zZXJpZiIgZm9udC1zaXplPSIxNCIgbGVuZ3RoQWRqdXN0PSJzcGFjaW5nIiB0ZXh0TGVuZ3RoPSIxODMiIHg9IjI5My41IiB5PSI3NDAuMDMxMyI+LUxvY2FsRGF0ZVRpbWUgcHJlZGljdGVkQXQ8L3RleHQ+PGxpbmUgc3R5bGU9InN0cm9rZTojMTgxODE4O3N0cm9rZS13aWR0aDowLjU7IiB4MT0iMjg4LjUiIHgyPSI1MTguNSIgeTE9Ijc0NS43ODEzIiB5Mj0iNzQ1Ljc4MTMiLz48dGV4dCBmaWxsPSIjMDAwMDAwIiBmb250LWZhbWlseT0ic2Fucy1zZXJpZiIgZm9udC1zaXplPSIxNCIgbGVuZ3RoQWRqdXN0PSJzcGFjaW5nIiB0ZXh0TGVuZ3RoPSIxNzAiIHg9IjI5My41IiB5PSI3NjMuMDE1NiI+K0RvdWJsZSBnZXRQcm9iYWJpbGl0eSgpPC90ZXh0Pjx0ZXh0IGZpbGw9IiMwMDAwMDAiIGZvbnQtZmFtaWx5PSJzYW5zLXNlcmlmIiBmb250LXNpemU9IjE0IiBsZW5ndGhBZGp1c3Q9InNwYWNpbmciIHRleHRMZW5ndGg9IjIyMCIgeD0iMjkzLjUiIHk9Ijc3OCI+K0xvY2FsRGF0ZVRpbWUgZ2V0UHJlZGljdGVkQXQoKTwvdGV4dD48L2c+PCEtLWNsYXNzIENvdXJzZVJlY29tbWVuZGF0aW9uLS0+PGcgaWQ9ImVsZW1fQ291cnNlUmVjb21tZW5kYXRpb24iPjxyZWN0IGNvZGVMaW5lPSIxMDQiIGZpbGw9IiNGMUYxRjEiIGhlaWdodD0iMTY3Ljg3NSIgaWQ9IkNvdXJzZVJlY29tbWVuZGF0aW9uIiByeD0iMi41IiByeT0iMi41IiBzdHlsZT0ic3Ryb2tlOiMxODE4MTg7c3Ryb2tlLXdpZHRoOjAuNTsiIHdpZHRoPSIyNDUiIHg9IjU5IiB5PSIxMTM2LjUiLz48ZWxsaXBzZSBjeD0iMTA2LjI1IiBjeT0iMTE1Mi41IiBmaWxsPSIjQzJDMkMyIiByeD0iMTEiIHJ5PSIxMSIgc3R5bGU9InN0cm9rZTojMTgxODE4O3N0cm9rZS13aWR0aDoxLjA7Ii8+PHBhdGggZD0iTTEwMy44NzUsMTE1Ni43NSBMMTAzLjg3NSwxMTU4LjUgTDEwOC44MTI1LDExNTguNSBMMTA4LjgxMjUsMTE1Ni43NSBMMTAzLjg3NSwxMTU2Ljc1IFogTTEwNC41NjI1LDExNTcuNDM3NSBRMTA0LjU2MjUsMTE1Ny40Mzc1IDEwNC41NjI1LDExNDguMjUgTDEwMi44MTI1LDExNDguMjUgUTEwMi44MTI1LDExNDguMjUgMTAyLjgxMjUsMTE1Ny40Mzc1IEwxMDQuNTYyNSwxMTU3LjQzNzUgWiBNMTA4LjEyNSwxMTU3LjQzNzUgTDEwOS44NzUsMTE1Ny40Mzc1IFExMDkuODc1LDExNTcuNDM3NSAxMDkuODc1LDExNTQuNjI1IEwxMDguMTI1LDExNTQuNjI1IFExMDguMTI1LDExNTQuNjI1IDEwOC4xMjUsMTE1Ny40Mzc1IFogTTEwOC4xMjUsMTE0OC4yNSBRMTA4LjEyNSwxMTQ4LjI1IDEwOC4xMjUsMTE1MS4wNjI1IEwxMDkuODc1LDExNTEuMDYyNSBRMTA5Ljg3NSwxMTUxLjA2MjUgMTA5Ljg3NSwxMTQ4LjI1IEwxMDguMTI1LDExNDguMjUgWiBNMTAzLjg3NSwxMTQ4LjkzNzUgTDEwOC44MTI1LDExNDguOTM3NSBMMTA4LjgxMjUsMTE0Ny4xODc1IEwxMDMuODc1LDExNDcuMTg3NSBMMTAzLjg3NSwxMTQ4LjkzNzUgWiAiIGZpbGw9IiMwMDAwMDAiLz48dGV4dCBmaWxsPSIjMDAwMDAwIiBmb250LWZhbWlseT0ic2Fucy1zZXJpZiIgZm9udC1zaXplPSIxNCIgbGVuZ3RoQWRqdXN0PSJzcGFjaW5nIiB0ZXh0TGVuZ3RoPSIxNDIiIHg9IjEyNi43NSIgeT0iMTE1OC4yNDIyIj5Db3Vyc2VSZWNvbW1lbmRhdGlvbjwvdGV4dD48bGluZSBzdHlsZT0ic3Ryb2tlOiMxODE4MTg7c3Ryb2tlLXdpZHRoOjAuNTsiIHgxPSI2MCIgeDI9IjMwMyIgeTE9IjExNjguNSIgeTI9IjExNjguNSIvPjx0ZXh0IGZpbGw9IiMwMDAwMDAiIGZvbnQtZmFtaWx5PSJzYW5zLXNlcmlmIiBmb250LXNpemU9IjE0IiBsZW5ndGhBZGp1c3Q9InNwYWNpbmciIHRleHRMZW5ndGg9IjU2IiB4PSI2NSIgeT0iMTE4NS43MzQ0Ij4tVVVJRCBpZDwvdGV4dD48dGV4dCBmaWxsPSIjMDAwMDAwIiBmb250LWZhbWlseT0ic2Fucy1zZXJpZiIgZm9udC1zaXplPSIxNCIgbGVuZ3RoQWRqdXN0PSJzcGFjaW5nIiB0ZXh0TGVuZ3RoPSIxMDUiIHg9IjY1IiB5PSIxMjAwLjcxODgiPi1VVUlEIHN0dWRlbnRJZDwvdGV4dD48dGV4dCBmaWxsPSIjMDAwMDAwIiBmb250LWZhbWlseT0ic2Fucy1zZXJpZiIgZm9udC1zaXplPSIxNCIgbGVuZ3RoQWRqdXN0PSJzcGFjaW5nIiB0ZXh0TGVuZ3RoPSI5OCIgeD0iNjUiIHk9IjEyMTUuNzAzMSI+LVVVSUQgY291cnNlSWQ8L3RleHQ+PHRleHQgZmlsbD0iIzAwMDAwMCIgZm9udC1mYW1pbHk9InNhbnMtc2VyaWYiIGZvbnQtc2l6ZT0iMTQiIGxlbmd0aEFkanVzdD0ic3BhY2luZyIgdGV4dExlbmd0aD0iMTI3IiB4PSI2NSIgeT0iMTIzMC42ODc1Ij4tRG91YmxlIG1hdGNoU2NvcmU8L3RleHQ+PHRleHQgZmlsbD0iIzAwMDAwMCIgZm9udC1mYW1pbHk9InNhbnMtc2VyaWYiIGZvbnQtc2l6ZT0iMTQiIGxlbmd0aEFkanVzdD0ic3BhY2luZyIgdGV4dExlbmd0aD0iMTk2IiB4PSI2NSIgeT0iMTI0NS42NzE5Ij4tTWFwJmx0O1N0cmluZywgT2JqZWN0Jmd0OyBmYWN0b3JzPC90ZXh0Pjx0ZXh0IGZpbGw9IiMwMDAwMDAiIGZvbnQtZmFtaWx5PSJzYW5zLXNlcmlmIiBmb250LXNpemU9IjE0IiBsZW5ndGhBZGp1c3Q9InNwYWNpbmciIHRleHRMZW5ndGg9IjE2OSIgeD0iNjUiIHk9IjEyNjAuNjU2MyI+LUxvY2FsRGF0ZVRpbWUgY3JlYXRlZEF0PC90ZXh0PjxsaW5lIHN0eWxlPSJzdHJva2U6IzE4MTgxODtzdHJva2Utd2lkdGg6MC41OyIgeDE9IjYwIiB4Mj0iMzAzIiB5MT0iMTI2Ni40MDYzIiB5Mj0iMTI2Ni40MDYzIi8+PHRleHQgZmlsbD0iIzAwMDAwMCIgZm9udC1mYW1pbHk9InNhbnMtc2VyaWYiIGZvbnQtc2l6ZT0iMTQiIGxlbmd0aEFkanVzdD0ic3BhY2luZyIgdGV4dExlbmd0aD0iMTYzIiB4PSI2NSIgeT0iMTI4My42NDA2Ij4rRG91YmxlIGdldE1hdGNoU2NvcmUoKTwvdGV4dD48dGV4dCBmaWxsPSIjMDAwMDAwIiBmb250LWZhbWlseT0ic2Fucy1zZXJpZiIgZm9udC1zaXplPSIxNCIgbGVuZ3RoQWRqdXN0PSJzcGFjaW5nIiB0ZXh0TGVuZ3RoPSIyMzMiIHg9IjY1IiB5PSIxMjk4LjYyNSI+K01hcCZsdDtTdHJpbmcsIE9iamVjdCZndDsgZ2V0RmFjdG9ycygpPC90ZXh0PjwvZz48IS0tY2xhc3MgU3R1ZGVudFJlc3VsdHMtLT48ZyBpZD0iZWxlbV9TdHVkZW50UmVzdWx0cyI+PHJlY3QgY29kZUxpbmU9IjExNiIgZmlsbD0iI0YxRjFGMSIgaGVpZ2h0PSIxMzcuOTA2MyIgaWQ9IlN0dWRlbnRSZXN1bHRzIiByeD0iMi41IiByeT0iMi41IiBzdHlsZT0ic3Ryb2tlOiMxODE4MTg7c3Ryb2tlLXdpZHRoOjAuNTsiIHdpZHRoPSIyNDUiIHg9IjciIHk9IjY1MC41Ii8+PGVsbGlwc2UgY3g9Ijc2LjI1IiBjeT0iNjY2LjUiIGZpbGw9IiNDMkMyQzIiIHJ4PSIxMSIgcnk9IjExIiBzdHlsZT0ic3Ryb2tlOiMxODE4MTg7c3Ryb2tlLXdpZHRoOjEuMDsiLz48cGF0aCBkPSJNNzMuODc1LDY3MC43NSBMNzMuODc1LDY3Mi41IEw3OC44MTI1LDY3Mi41IEw3OC44MTI1LDY3MC43NSBMNzMuODc1LDY3MC43NSBaIE03NC41NjI1LDY3MS40Mzc1IFE3NC41NjI1LDY3MS40Mzc1IDc0LjU2MjUsNjYyLjI1IEw3Mi44MTI1LDY2Mi4yNSBRNzIuODEyNSw2NjIuMjUgNzIuODEyNSw2NzEuNDM3NSBMNzQuNTYyNSw2NzEuNDM3NSBaIE03OC4xMjUsNjcxLjQzNzUgTDc5Ljg3NSw2NzEuNDM3NSBRNzkuODc1LDY3MS40Mzc1IDc5Ljg3NSw2NjguNjI1IEw3OC4xMjUsNjY4LjYyNSBRNzguMTI1LDY2OC42MjUgNzguMTI1LDY3MS40Mzc1IFogTTc4LjEyNSw2NjIuMjUgUTc4LjEyNSw2NjIuMjUgNzguMTI1LDY2NS4wNjI1IEw3OS44NzUsNjY1LjA2MjUgUTc5Ljg3NSw2NjUuMDYyNSA3OS44NzUsNjYyLjI1IEw3OC4xMjUsNjYyLjI1IFogTTczLjg3NSw2NjIuOTM3NSBMNzguODEyNSw2NjIuOTM3NSBMNzguODEyNSw2NjEuMTg3NSBMNzMuODc1LDY2MS4xODc1IEw3My44NzUsNjYyLjkzNzUgWiAiIGZpbGw9IiMwMDAwMDAiLz48dGV4dCBmaWxsPSIjMDAwMDAwIiBmb250LWZhbWlseT0ic2Fucy1zZXJpZiIgZm9udC1zaXplPSIxNCIgbGVuZ3RoQWRqdXN0PSJzcGFjaW5nIiB0ZXh0TGVuZ3RoPSI5OCIgeD0iOTYuNzUiIHk9IjY3Mi4yNDIyIj5TdHVkZW50UmVzdWx0czwvdGV4dD48bGluZSBzdHlsZT0ic3Ryb2tlOiMxODE4MTg7c3Ryb2tlLXdpZHRoOjAuNTsiIHgxPSI4IiB4Mj0iMjUxIiB5MT0iNjgyLjUiIHkyPSI2ODIuNSIvPjx0ZXh0IGZpbGw9IiMwMDAwMDAiIGZvbnQtZmFtaWx5PSJzYW5zLXNlcmlmIiBmb250LXNpemU9IjE0IiBsZW5ndGhBZGp1c3Q9InNwYWNpbmciIHRleHRMZW5ndGg9IjEwNSIgeD0iMTMiIHk9IjY5OS43MzQ0Ij4tVVVJRCBzdHVkZW50SWQ8L3RleHQ+PHRleHQgZmlsbD0iIzAwMDAwMCIgZm9udC1mYW1pbHk9InNhbnMtc2VyaWYiIGZvbnQtc2l6ZT0iMTQiIGxlbmd0aEFkanVzdD0ic3BhY2luZyIgdGV4dExlbmd0aD0iMTEzIiB4PSIxMyIgeT0iNzE0LjcxODgiPi1TdHJpbmcgZXhhbVR5cGU8L3RleHQ+PHRleHQgZmlsbD0iIzAwMDAwMCIgZm9udC1mYW1pbHk9InNhbnMtc2VyaWYiIGZvbnQtc2l6ZT0iMTQiIGxlbmd0aEFkanVzdD0ic3BhY2luZyIgdGV4dExlbmd0aD0iMTk2IiB4PSIxMyIgeT0iNzI5LjcwMzEiPi1NYXAmbHQ7U3RyaW5nLCBTdHJpbmcmZ3Q7IHJlc3VsdHM8L3RleHQ+PHRleHQgZmlsbD0iIzAwMDAwMCIgZm9udC1mYW1pbHk9InNhbnMtc2VyaWYiIGZvbnQtc2l6ZT0iMTQiIGxlbmd0aEFkanVzdD0ic3BhY2luZyIgdGV4dExlbmd0aD0iMTYzIiB4PSIxMyIgeT0iNzQ0LjY4NzUiPi1Mb2NhbERhdGVUaW1lIGV4YW1EYXRlPC90ZXh0PjxsaW5lIHN0eWxlPSJzdHJva2U6IzE4MTgxODtzdHJva2Utd2lkdGg6MC41OyIgeDE9IjgiIHgyPSIyNTEiIHkxPSI3NTAuNDM3NSIgeTI9Ijc1MC40Mzc1Ii8+PHRleHQgZmlsbD0iIzAwMDAwMCIgZm9udC1mYW1pbHk9InNhbnMtc2VyaWYiIGZvbnQtc2l6ZT0iMTQiIGxlbmd0aEFkanVzdD0ic3BhY2luZyIgdGV4dExlbmd0aD0iMjMzIiB4PSIxMyIgeT0iNzY3LjY3MTkiPitNYXAmbHQ7U3RyaW5nLCBTdHJpbmcmZ3Q7IGdldFJlc3VsdHMoKTwvdGV4dD48dGV4dCBmaWxsPSIjMDAwMDAwIiBmb250LWZhbWlseT0ic2Fucy1zZXJpZiIgZm9udC1zaXplPSIxNCIgbGVuZ3RoQWRqdXN0PSJzcGFjaW5nIiB0ZXh0TGVuZ3RoPSIxNTAiIHg9IjEzIiB5PSI3ODIuNjU2MyI+K1N0cmluZyBnZXRFeGFtVHlwZSgpPC90ZXh0PjwvZz48ZyBpZD0iZWxlbV9HTU4yMSI+PHBhdGggZD0iTTYwOSw3OS41IEw2MDksOTUgTDU3NC4yLDk5IEw2MDksMTAzIEw2MDksMTE3LjMyODEgQTAsMCAwIDAgMCA2MDksMTE3LjMyODEgTDgyOCwxMTcuMzI4MSBBMCwwIDAgMCAwIDgyOCwxMTcuMzI4MSBMODI4LDg5LjUgTDgxOCw3OS41IEw2MDksNzkuNSBBMCwwIDAgMCAwIDYwOSw3OS41ICIgZmlsbD0iI0ZBRkFGQSIgc3R5bGU9InN0cm9rZTojMTgxODE4O3N0cm9rZS13aWR0aDowLjU7Ii8+PHBhdGggZD0iTTgxOCw3OS41IEw4MTgsODkuNSBMODI4LDg5LjUgTDgxOCw3OS41ICIgZmlsbD0iI0ZBRkFGQSIgc3R5bGU9InN0cm9rZTojMTgxODE4O3N0cm9rZS13aWR0aDowLjU7Ii8+PHRleHQgZmlsbD0iIzAwMDAwMCIgZm9udC1mYW1pbHk9InNhbnMtc2VyaWYiIGZvbnQtc2l6ZT0iMTMiIGxlbmd0aEFkanVzdD0ic3BhY2luZyIgdGV4dExlbmd0aD0iMTk4IiB4PSI2MTUiIHk9Ijk2Ljc4OTEiPkJhc2UgY2xhc3MgZm9yIGFsbCB1c2VyIHR5cGVzPC90ZXh0Pjx0ZXh0IGZpbGw9IiMwMDAwMDAiIGZvbnQtZmFtaWx5PSJzYW5zLXNlcmlmIiBmb250LXNpemU9IjEzIiBsZW5ndGhBZGp1c3Q9InNwYWNpbmciIHRleHRMZW5ndGg9IjE3OCIgeD0iNjE1IiB5PSIxMTAuNzAzMSI+d2l0aCBhdXRoZW50aWNhdGlvbiBkZXRhaWxzPC90ZXh0PjwvZz48ZyBpZD0iZWxlbV9HTU4yNCI+PHBhdGggZD0iTTY1NywzOTAgTDY1Nyw0MDUgTDU1MC43NCw0MDkgTDY1Nyw0MTMgTDY1Nyw0MjcuODI4MSBBMCwwIDAgMCAwIDY1Nyw0MjcuODI4MSBMODU0LDQyNy44MjgxIEEwLDAgMCAwIDAgODU0LDQyNy44MjgxIEw4NTQsNDAwIEw4NDQsMzkwIEw2NTcsMzkwIEEwLDAgMCAwIDAgNjU3LDM5MCAiIGZpbGw9IiNGQUZBRkEiIHN0eWxlPSJzdHJva2U6IzE4MTgxODtzdHJva2Utd2lkdGg6MC41OyIvPjxwYXRoIGQ9Ik04NDQsMzkwIEw4NDQsNDAwIEw4NTQsNDAwIEw4NDQsMzkwICIgZmlsbD0iI0ZBRkFGQSIgc3R5bGU9InN0cm9rZTojMTgxODE4O3N0cm9rZS13aWR0aDowLjU7Ii8+PHRleHQgZmlsbD0iIzAwMDAwMCIgZm9udC1mYW1pbHk9InNhbnMtc2VyaWYiIGZvbnQtc2l6ZT0iMTMiIGxlbmd0aEFkanVzdD0ic3BhY2luZyIgdGV4dExlbmd0aD0iMTc2IiB4PSI2NjMiIHk9IjQwNy4yODkxIj5FeHRlbmRzIFVzZXIgd2l0aCBhY2FkZW1pYzwvdGV4dD48dGV4dCBmaWxsPSIjMDAwMDAwIiBmb250LWZhbWlseT0ic2Fucy1zZXJpZiIgZm9udC1zaXplPSIxMyIgbGVuZ3RoQWRqdXN0PSJzcGFjaW5nIiB0ZXh0TGVuZ3RoPSIxNjIiIHg9IjY2MyIgeT0iNDIxLjIwMzEiPmFuZCBwZXJzb25hbCBpbmZvcm1hdGlvbjwvdGV4dD48L2c+PGcgaWQ9ImVsZW1fR01OMjciPjxwYXRoIGQ9Ik01NzEsMTM3MiBMNTcxLDE0MDkuODI4MSBBMCwwIDAgMCAwIDU3MSwxNDA5LjgyODEgTDgxMiwxNDA5LjgyODEgQTAsMCAwIDAgMCA4MTIsMTQwOS44MjgxIEw4MTIsMTM4MiBMODAyLDEzNzIgTDY5NS41LDEzNzIgTDY5MS41LDEzMTIuMjQgTDY4Ny41LDEzNzIgTDU3MSwxMzcyIEEwLDAgMCAwIDAgNTcxLDEzNzIgIiBmaWxsPSIjRkFGQUZBIiBzdHlsZT0ic3Ryb2tlOiMxODE4MTg7c3Ryb2tlLXdpZHRoOjAuNTsiLz48cGF0aCBkPSJNODAyLDEzNzIgTDgwMiwxMzgyIEw4MTIsMTM4MiBMODAyLDEzNzIgIiBmaWxsPSIjRkFGQUZBIiBzdHlsZT0ic3Ryb2tlOiMxODE4MTg7c3Ryb2tlLXdpZHRoOjAuNTsiLz48dGV4dCBmaWxsPSIjMDAwMDAwIiBmb250LWZhbWlseT0ic2Fucy1zZXJpZiIgZm9udC1zaXplPSIxMyIgbGVuZ3RoQWRqdXN0PSJzcGFjaW5nIiB0ZXh0TGVuZ3RoPSIyMjAiIHg9IjU3NyIgeT0iMTM4OS4yODkxIj5SZXByZXNlbnRzIHBvc3NpYmxlIGNhcmVlciBwYXRoczwvdGV4dD48dGV4dCBmaWxsPSIjMDAwMDAwIiBmb250LWZhbWlseT0ic2Fucy1zZXJpZiIgZm9udC1zaXplPSIxMyIgbGVuZ3RoQWRqdXN0PSJzcGFjaW5nIiB0ZXh0TGVuZ3RoPSIyMTciIHg9IjU3NyIgeT0iMTQwMy4yMDMxIj53aXRoIHJlcXVpcmVkIHNraWxscyBhbmQgY291cnNlczwvdGV4dD48L2c+PGcgaWQ9ImVsZW1fR01OMzAiPjxwYXRoIGQ9Ik04NiwxMzcyIEw4NiwxNDA5LjgyODEgQTAsMCAwIDAgMCA4NiwxNDA5LjgyODEgTDI3NywxNDA5LjgyODEgQTAsMCAwIDAgMCAyNzcsMTQwOS44MjgxIEwyNzcsMTM4MiBMMjY3LDEzNzIgTDE4NS41LDEzNzIgTDE4MS41LDEzMDQuNzUgTDE3Ny41LDEzNzIgTDg2LDEzNzIgQTAsMCAwIDAgMCA4NiwxMzcyICIgZmlsbD0iI0ZBRkFGQSIgc3R5bGU9InN0cm9rZTojMTgxODE4O3N0cm9rZS13aWR0aDowLjU7Ii8+PHBhdGggZD0iTTI2NywxMzcyIEwyNjcsMTM4MiBMMjc3LDEzODIgTDI2NywxMzcyICIgZmlsbD0iI0ZBRkFGQSIgc3R5bGU9InN0cm9rZTojMTgxODE4O3N0cm9rZS13aWR0aDowLjU7Ii8+PHRleHQgZmlsbD0iIzAwMDAwMCIgZm9udC1mYW1pbHk9InNhbnMtc2VyaWYiIGZvbnQtc2l6ZT0iMTMiIGxlbmd0aEFkanVzdD0ic3BhY2luZyIgdGV4dExlbmd0aD0iMTcwIiB4PSI5MiIgeT0iMTM4OS4yODkxIj5HZW5lcmF0ZWQgcmVjb21tZW5kYXRpb25zPC90ZXh0Pjx0ZXh0IGZpbGw9IiMwMDAwMDAiIGZvbnQtZmFtaWx5PSJzYW5zLXNlcmlmIiBmb250LXNpemU9IjEzIiBsZW5ndGhBZGp1c3Q9InNwYWNpbmciIHRleHRMZW5ndGg9IjE2MyIgeD0iOTIiIHk9IjE0MDMuMjAzMSI+YmFzZWQgb24gc3R1ZGVudCBwcm9maWxlPC90ZXh0PjwvZz48IS0tcmV2ZXJzZSBsaW5rIFVzZXIgdG8gU3R1ZGVudC0tPjxnIGlkPSJsaW5rX1VzZXJfU3R1ZGVudCI+PHBhdGggY29kZUxpbmU9IjEyNiIgZD0iTTQ5MS43NSwyMDguNCBDNDkxLjc1LDIyNy4xOCA0OTEuNzUsMjI5LjQ1IDQ5MS43NSwyNDkuODEgIiBmaWxsPSJub25lIiBpZD0iVXNlci1iYWNrdG8tU3R1ZGVudCIgc3R5bGU9InN0cm9rZTojMTgxODE4O3N0cm9rZS13aWR0aDoxLjA7Ii8+PHBvbHlnb24gZmlsbD0ibm9uZSIgcG9pbnRzPSI0OTEuNzUsMTkwLjQsNDg1Ljc1LDIwOC40LDQ5Ny43NSwyMDguNCw0OTEuNzUsMTkwLjQiIHN0eWxlPSJzdHJva2U6IzE4MTgxODtzdHJva2Utd2lkdGg6MS4wOyIvPjwvZz48IS0tcmV2ZXJzZSBsaW5rIFVzZXIgdG8gSW5zdGl0dXRpb24tLT48ZyBpZD0ibGlua19Vc2VyX0luc3RpdHV0aW9uIj48cGF0aCBjb2RlTGluZT0iMTI3IiBkPSJNNTY0LjUsMjA4LjEzIEM1NjQuNSwzMjguMjQgNTY0LjUsNTE5LjI1IDU2NC41LDYzNS40NyAiIGZpbGw9Im5vbmUiIGlkPSJVc2VyLWJhY2t0by1JbnN0aXR1dGlvbiIgc3R5bGU9InN0cm9rZTojMTgxODE4O3N0cm9rZS13aWR0aDoxLjA7Ii8+PHBvbHlnb24gZmlsbD0ibm9uZSIgcG9pbnRzPSI1NjQuNSwxOTAuMTMsNTU4LjUsMjA4LjEzLDU3MC41LDIwOC4xMyw1NjQuNSwxOTAuMTMiIHN0eWxlPSJzdHJva2U6IzE4MTgxODtzdHJva2Utd2lkdGg6MS4wOyIvPjwvZz48IS0tcmV2ZXJzZSBsaW5rIFN0dWRlbnQgdG8gQ2FyZWVyUHJlZGljdGlvbi0tPjxnIGlkPSJsaW5rX1N0dWRlbnRfQ2FyZWVyUHJlZGljdGlvbiI+PHBhdGggY29kZUxpbmU9IjEyOCIgZD0iTTQwMy41LDU4MC4zNCBDNDAzLjUsNjExLjAyIDQwMy41LDYyOS40OCA0MDMuNSw2NTQuOTMgIiBmaWxsPSJub25lIiBpZD0iU3R1ZGVudC1iYWNrdG8tQ2FyZWVyUHJlZGljdGlvbiIgc3R5bGU9InN0cm9rZTojMTgxODE4O3N0cm9rZS13aWR0aDoxLjA7Ii8+PHBvbHlnb24gZmlsbD0iIzE4MTgxOCIgcG9pbnRzPSI0MDMuNSw1NjguMzQsMzk5LjUsNTc0LjM0LDQwMy41LDU4MC4zNCw0MDcuNSw1NzQuMzQsNDAzLjUsNTY4LjM0IiBzdHlsZT0ic3Ryb2tlOiMxODE4MTg7c3Ryb2tlLXdpZHRoOjEuMDsiLz48dGV4dCBmaWxsPSIjMDAwMDAwIiBmb250LWZhbWlseT0ic2Fucy1zZXJpZiIgZm9udC1zaXplPSIxMyIgbGVuZ3RoQWRqdXN0PSJzcGFjaW5nIiB0ZXh0TGVuZ3RoPSI3IiB4PSIzOTYuMzQxNCIgeT0iNTg4LjE3MDgiPjE8L3RleHQ+PHRleHQgZmlsbD0iIzAwMDAwMCIgZm9udC1mYW1pbHk9InNhbnMtc2VyaWYiIGZvbnQtc2l6ZT0iMTMiIGxlbmd0aEFkanVzdD0ic3BhY2luZyIgdGV4dExlbmd0aD0iMjciIHg9IjM3NC43NzAzIiB5PSI2NDUuMTg3OCI+bWFueTwvdGV4dD48L2c+PCEtLXJldmVyc2UgbGluayBTdHVkZW50IHRvIFN0dWRlbnRSZXN1bHRzLS0+PGcgaWQ9ImxpbmtfU3R1ZGVudF9TdHVkZW50UmVzdWx0cyI+PHBhdGggY29kZUxpbmU9IjEyOSIgZD0iTTI2Ni44Myw1ODAuMTQgQzI2Ni44Myw2NTYuNjYgMjY2LjgzLDcyMCAyNjYuODMsNzIwIEMyNjYuODMsNzIwIDI2MS4xNyw3MjAgMjUyLjE0LDcyMCAiIGZpbGw9Im5vbmUiIGlkPSJTdHVkZW50LWJhY2t0by1TdHVkZW50UmVzdWx0cyIgc3R5bGU9InN0cm9rZTojMTgxODE4O3N0cm9rZS13aWR0aDoxLjA7Ii8+PHBvbHlnb24gZmlsbD0iIzE4MTgxOCIgcG9pbnRzPSIyNjYuODMsNTY4LjE0LDI2Mi44Myw1NzQuMTQsMjY2LjgzLDU4MC4xNCwyNzAuODMsNTc0LjE0LDI2Ni44Myw1NjguMTQiIHN0eWxlPSJzdHJva2U6IzE4MTgxODtzdHJva2Utd2lkdGg6MS4wOyIvPjx0ZXh0IGZpbGw9IiMwMDAwMDAiIGZvbnQtZmFtaWx5PSJzYW5zLXNlcmlmIiBmb250LXNpemU9IjEzIiBsZW5ndGhBZGp1c3Q9InNwYWNpbmciIHRleHRMZW5ndGg9IjciIHg9IjI1My40Nzg1IiB5PSI1ODcuOTYxNyI+MTwvdGV4dD48dGV4dCBmaWxsPSIjMDAwMDAwIiBmb250LWZhbWlseT0ic2Fucy1zZXJpZiIgZm9udC1zaXplPSIxMyIgbGVuZ3RoQWRqdXN0PSJzcGFjaW5nIiB0ZXh0TGVuZ3RoPSIyNyIgeD0iMjYwLjAxMDYiIHk9IjcxOC45NzEzIj5tYW55PC90ZXh0PjwvZz48IS0tbGluayBTdHVkZW50IHRvIEluc3RpdHV0aW9uLS0+PGcgaWQ9ImxpbmtfU3R1ZGVudF9JbnN0aXR1dGlvbiI+PHBhdGggY29kZUxpbmU9IjEzMCIgZD0iTTUzNSw1NjguMzIgQzUzNSw2MDkuNzUgNTM1LDY0MyA1MzUsNjQzIEM1MzUsNjQzIDU0Mi43Niw2NDMgNTU0LjgyLDY0MyAiIGZpbGw9Im5vbmUiIGlkPSJTdHVkZW50LUluc3RpdHV0aW9uIiBzdHlsZT0ic3Ryb2tlOiMxODE4MTg7c3Ryb2tlLXdpZHRoOjEuMDsiLz48cG9seWdvbiBmaWxsPSIjMDAwMDAwIiBwb2ludHM9IjQ1OS4yODI2LDYxMy4zNTk3LDQ1OS44MDI5LDYwMy44NjM0LDQ1NC4xMjE4LDYwNS4zNzEyLDQ1OS4yODI2LDYxMy4zNTk3IiBzdHlsZT0ic3Ryb2tlOiMwMDAwMDA7c3Ryb2tlLXdpZHRoOjEuMDsiLz48dGV4dCBmaWxsPSIjMDAwMDAwIiBmb250LWZhbWlseT0ic2Fucy1zZXJpZiIgZm9udC1zaXplPSIxMyIgbGVuZ3RoQWRqdXN0PSJzcGFjaW5nIiB0ZXh0TGVuZ3RoPSI2NyIgeD0iNDY3IiB5PSI2MTMuODU5MSI+c3R1ZGllcyBhdDwvdGV4dD48dGV4dCBmaWxsPSIjMDAwMDAwIiBmb250LWZhbWlseT0ic2Fucy1zZXJpZiIgZm9udC1zaXplPSIxMyIgbGVuZ3RoQWRqdXN0PSJzcGFjaW5nIiB0ZXh0TGVuZ3RoPSIyNyIgeD0iNTEzLjM0NjkiIHk9IjU4OC4xNDk5Ij5tYW55PC90ZXh0Pjx0ZXh0IGZpbGw9IiMwMDAwMDAiIGZvbnQtZmFtaWx5PSJzYW5zLXNlcmlmIiBmb250LXNpemU9IjEzIiBsZW5ndGhBZGp1c3Q9InNwYWNpbmciIHRleHRMZW5ndGg9IjciIHg9IjU0MC4xNTM5IiB5PSI2MzcuNzc4NCI+MTwvdGV4dD48L2c+PCEtLWxpbmsgSW5zdGl0dXRpb24gdG8gQ291cnNlLS0+PGcgaWQ9ImxpbmtfSW5zdGl0dXRpb25fQ291cnNlIj48cGF0aCBjb2RlTGluZT0iMTMxIiBkPSJNNjQ3LDgwMy42MSBDNjQ3LDgyNS4yMSA2NDcsODQ4LjY2IDY0Nyw4NzAuOTQgIiBmaWxsPSJub25lIiBpZD0iSW5zdGl0dXRpb24tQ291cnNlIiBzdHlsZT0ic3Ryb2tlOiMxODE4MTg7c3Ryb2tlLXdpZHRoOjEuMDsiLz48cG9seWdvbiBmaWxsPSIjMDAwMDAwIiBwb2ludHM9IjU5Nyw4MzUuMjI3LDU5OS45Mzg5LDgyNi4xODE5LDU5NC4wNjExLDgyNi4xODE5LDU5Nyw4MzUuMjI3IiBzdHlsZT0ic3Ryb2tlOiMwMDAwMDA7c3Ryb2tlLXdpZHRoOjEuMDsiLz48dGV4dCBmaWxsPSIjMDAwMDAwIiBmb250LWZhbWlseT0ic2Fucy1zZXJpZiIgZm9udC1zaXplPSIxMyIgbGVuZ3RoQWRqdXN0PSJzcGFjaW5nIiB0ZXh0TGVuZ3RoPSI0MCIgeD0iNjA2IiB5PSI4MzUuNTU5MSI+b2ZmZXJzPC90ZXh0Pjx0ZXh0IGZpbGw9IiMwMDAwMDAiIGZvbnQtZmFtaWx5PSJzYW5zLXNlcmlmIiBmb250LXNpemU9IjEzIiBsZW5ndGhBZGp1c3Q9InNwYWNpbmciIHRleHRMZW5ndGg9IjI3IiB4PSI2MTUuMDE1NiIgeT0iODIzLjczMDUiPm1hbnk8L3RleHQ+PHRleHQgZmlsbD0iIzAwMDAwMCIgZm9udC1mYW1pbHk9InNhbnMtc2VyaWYiIGZvbnQtc2l6ZT0iMTMiIGxlbmd0aEFkanVzdD0ic3BhY2luZyIgdGV4dExlbmd0aD0iMjciIHg9IjYxNS4xOTY5IiB5PSI4NjEuNTMxNyI+bWFueTwvdGV4dD48L2c+PCEtLWxpbmsgU3RyZWFtIHRvIENvdXJzZS0tPjxnIGlkPSJsaW5rX1N0cmVhbV9Db3Vyc2UiPjxwYXRoIGNvZGVMaW5lPSIxMzIiIGQ9Ik04NjIuNjEsODA4IEM3OTcuOTEsODA4IDczNiw4MDggNzM2LDgwOCBDNzM2LDgwOCA3MzYsODM3LjEgNzM2LDg3MC42MyAiIGZpbGw9Im5vbmUiIGlkPSJTdHJlYW0tQ291cnNlIiBzdHlsZT0ic3Ryb2tlOiMxODE4MTg7c3Ryb2tlLXdpZHRoOjEuMDsiLz48cG9seWdvbiBmaWxsPSIjMDAwMDAwIiBwb2ludHM9IjY5OS41MDgzLDgxOC4xNzQsNzA4LjkxODgsODE2Ljc5NzcsNzA2LjMxMjcsODExLjUyOTIsNjk5LjUwODMsODE4LjE3NCIgc3R5bGU9InN0cm9rZTojMDAwMDAwO3N0cm9rZS13aWR0aDoxLjA7Ii8+PHRleHQgZmlsbD0iIzAwMDAwMCIgZm9udC1mYW1pbHk9InNhbnMtc2VyaWYiIGZvbnQtc2l6ZT0iMTMiIGxlbmd0aEFkanVzdD0ic3BhY2luZyIgdGV4dExlbmd0aD0iNTQiIHg9IjcxMi45OSIgeT0iODIxLjI4OTEiPmNvbnRhaW5zPC90ZXh0Pjx0ZXh0IGZpbGw9IiMwMDAwMDAiIGZvbnQtZmFtaWx5PSJzYW5zLXNlcmlmIiBmb250LXNpemU9IjEzIiBsZW5ndGhBZGp1c3Q9InNwYWNpbmciIHRleHRMZW5ndGg9IjciIHg9Ijg0Ny45NTg2IiB5PSI4MTEuNTQ0NCI+MTwvdGV4dD48dGV4dCBmaWxsPSIjMDAwMDAwIiBmb250LWZhbWlseT0ic2Fucy1zZXJpZiIgZm9udC1zaXplPSIxMyIgbGVuZ3RoQWRqdXN0PSJzcGFjaW5nIiB0ZXh0TGVuZ3RoPSIyNyIgeD0iNzExLjQ3MDMiIHk9Ijg2MS41MjUyIj5tYW55PC90ZXh0PjwvZz48IS0tbGluayBDb3Vyc2UgdG8gQ2FyZWVyLS0+PGcgaWQ9ImxpbmtfQ291cnNlX0NhcmVlciI+PHBhdGggY29kZUxpbmU9IjEzMyIgZD0iTTY5MS41LDEwNjkgQzY5MS41LDEwODguNyA2OTEuNSwxMTA5LjMgNjkxLjUsMTEyOC43MyAiIGZpbGw9Im5vbmUiIGlkPSJDb3Vyc2UtQ2FyZWVyIiBzdHlsZT0ic3Ryb2tlOiMxODE4MTg7c3Ryb2tlLXdpZHRoOjEuMDsiLz48cG9seWdvbiBmaWxsPSIjMDAwMDAwIiBwb2ludHM9IjYyNy41LDEwOTYuODI3LDYzMC40Mzg5LDEwODcuNzgxOSw2MjQuNTYxMSwxMDg3Ljc4MTksNjI3LjUsMTA5Ni44MjciIHN0eWxlPSJzdHJva2U6IzAwMDAwMDtzdHJva2Utd2lkdGg6MS4wOyIvPjx0ZXh0IGZpbGw9IiMwMDAwMDAiIGZvbnQtZmFtaWx5PSJzYW5zLXNlcmlmIiBmb250LXNpemU9IjEzIiBsZW5ndGhBZGp1c3Q9InNwYWNpbmciIHRleHRMZW5ndGg9IjU0IiB4PSI2MzYuNSIgeT0iMTA5Ny4xNTkxIj5sZWFkcyB0bzwvdGV4dD48dGV4dCBmaWxsPSIjMDAwMDAwIiBmb250LWZhbWlseT0ic2Fucy1zZXJpZiIgZm9udC1zaXplPSIxMyIgbGVuZ3RoQWRqdXN0PSJzcGFjaW5nIiB0ZXh0TGVuZ3RoPSIyNyIgeD0iNjYzLjUwODYiIHk9IjEwODkuMDc2Ij5tYW55PC90ZXh0Pjx0ZXh0IGZpbGw9IiMwMDAwMDAiIGZvbnQtZmFtaWx5PSJzYW5zLXNlcmlmIiBmb250LXNpemU9IjEzIiBsZW5ndGhBZGp1c3Q9InNwYWNpbmciIHRleHRMZW5ndGg9IjI3IiB4PSI2NjMuMjk3NyIgeT0iMTExOS4zMTM5Ij5tYW55PC90ZXh0PjwvZz48IS0tbGluayBTdHVkZW50IHRvIENvdXJzZVJlY29tbWVuZGF0aW9uLS0+PGcgaWQ9ImxpbmtfU3R1ZGVudF9Db3Vyc2VSZWNvbW1lbmRhdGlvbiI+PHBhdGggY29kZUxpbmU9IjEzNCIgZD0iTTI3Ny4xNyw1NjguMzYgQzI3Ny4xNyw3MzguOCAyNzcuMTcsMTAwMi41OSAyNzcuMTcsMTEzNi40MyAiIGZpbGw9Im5vbmUiIGlkPSJTdHVkZW50LUNvdXJzZVJlY29tbWVuZGF0aW9uIiBzdHlsZT0ic3Ryb2tlOiMxODE4MTg7c3Ryb2tlLXdpZHRoOjEuMDsiLz48dGV4dCBmaWxsPSIjMDAwMDAwIiBmb250LWZhbWlseT0ic2Fucy1zZXJpZiIgZm9udC1zaXplPSIxMyIgbGVuZ3RoQWRqdXN0PSJzcGFjaW5nIiB0ZXh0TGVuZ3RoPSI3IiB4PSIyNjQuMjg3MSIgeT0iNTg4LjE5MTciPjE8L3RleHQ+PHRleHQgZmlsbD0iIzAwMDAwMCIgZm9udC1mYW1pbHk9InNhbnMtc2VyaWYiIGZvbnQtc2l6ZT0iMTMiIGxlbmd0aEFkanVzdD0ic3BhY2luZyIgdGV4dExlbmd0aD0iMjciIHg9IjI1OC4yNTg2IiB5PSIxMTI2Ljg1NDciPm1hbnk8L3RleHQ+PC9nPjwhLS1saW5rIENvdXJzZSB0byBDb3Vyc2VSZWNvbW1lbmRhdGlvbi0tPjxnIGlkPSJsaW5rX0NvdXJzZV9Db3Vyc2VSZWNvbW1lbmRhdGlvbiI+PHBhdGggY29kZUxpbmU9IjEzNSIgZD0iTTU2Mi4yNSwxMDY5LjIgQzU2Mi4yNSwxMTM5LjM2IDU2Mi4yNSwxMjIxIDU2Mi4yNSwxMjIxIEM1NjIuMjUsMTIyMSA0MTUuMzcsMTIyMSAzMDQuMDcsMTIyMSAiIGZpbGw9Im5vbmUiIGlkPSJDb3Vyc2UtQ291cnNlUmVjb21tZW5kYXRpb24iIHN0eWxlPSJzdHJva2U6IzE4MTgxODtzdHJva2Utd2lkdGg6MS4wOyIvPjx0ZXh0IGZpbGw9IiMwMDAwMDAiIGZvbnQtZmFtaWx5PSJzYW5zLXNlcmlmIiBmb250LXNpemU9IjEzIiBsZW5ndGhBZGp1c3Q9InNwYWNpbmciIHRleHRMZW5ndGg9IjciIHg9IjU0NS41MDEyIiB5PSIxMDg5LjI5MDciPjE8L3RleHQ+PHRleHQgZmlsbD0iIzAwMDAwMCIgZm9udC1mYW1pbHk9InNhbnMtc2VyaWYiIGZvbnQtc2l6ZT0iMTMiIGxlbmd0aEFkanVzdD0ic3BhY2luZyIgdGV4dExlbmd0aD0iMjciIHg9IjMxMS45MzY1IiB5PSIxMjE5Ljk3MjIiPm1hbnk8L3RleHQ+PC9nPjwhLS1TUkM9W2ZMVlZSeml1Mzd4dE5vN3FQTlV0QXQxeEJPODBOUmlEMFRBcklEZnhzOWppQ3g0c01WOGFVTHRNa196enJBek9Ta25zWG5rbWhJT2ZLbG40VmNIVmFRcXZTMjJMNTNrc3huS3JKMGZUdzJ6Q1Q1SkhiYklTUWRyZlo2OWJSczI1VGJsczB5WFZZS2FoWFFtUTlMaVdIbE1HUTdIM1FfZDhuOXhpQURVZlhaQzF2ajAxYVNlcWlZWFVhUlRLMHRkR2U3cDhXZlJRQTVlUF8tYXJKbU4xRi1TRjN3amhtY2hfaVNNaE9HMTFNeVc0cTVCNkNxYzdWWHdib2l5Zm9Wc3ZyeXhoN2lvZ19rcnRCbWFjQUZrOHRhLWJ4c284S180Nk5RQnFOdmxMcmxHcjI0Rm1CcEU3bWtTSVhLX1BKSDFRV19iY0NicXJLa1BQcjBubk9NQ3hldTJzTmRHai1uOVZ6Q1VzYVlmMFNhRXhYUlZ5YV9aX2JxSm8zVVlVNnBybEdkRUo0QWlOeDFpZVJURjloenloM1RhTHpYdHJ0c2t5eW85d1BTQTAwWHN6UFplaTRDdWQ1UFlXczlpY3JMckgxUTNrNURHODF2UmphZEo3ZHh0VHd3Y2l5OExrcm82bi03V3BUZlRaa3ZXT2M0eUV0WVlWa0dfUTNQeXdyaUhBUTJvNnRpaG9rYVdMVU10T0xpYTRacjNZMi1Hb0JZbE5sbENGNmFmaTlOT29uVDZ6dDNBeWU0dXAyWGhDbV8tZUp3bHo3Z19zMGVuTkd6WVhCc3AxWmpsMm9WdkJhelVXQXlNdzhVa2lRMUh5eEhkWVZ4bFV6a0xkZzl3aHpQTzlybFJqeFZnM2VaTmUyTld3Z0pOM3J4ekFPMWg3dXpIMHhValcxaVV4dENpQm9EdHVNX2F4SFVweXFIb3g4RmpWczRMdmMwOGxPZE1QT0hMUTgtVy05VXBaODRYZzZ4YmRqcUNBZ0R5VVZYNzRlVXJrS2xUUHpzSzFSOF83NjRWT2RDU0hSNXVzOWs4d0htZUZ5NV8zM1hpR3piOFRkWWQ2eEhwNW5TSkp5ZmYyN3h1WlZtaEFycW55cVVEa2xDQXhQeDBhblJKOVJmMzNDajBLLUtQdlp0RlBES202S3NBcE1GbmpoTXdUcU44djFqMlJLekRhZlQ0Zk1UQUl5VUZhTTJEWHlNakMtZndyNENhUndhaXBWbE14dVVHbmtVcGlHQkpzVUR1ZTZ3WGFzdUFld0lkWkpiZkNEUDd4cTd2a2hyQVA5eXFlWWFyMEpUTkNwRC0wNk12NGJQNUFKbzVIOEd6RXVkMXB6M2w1Nno0cDZoeHRwYVRSSTFYY2F5ajhyM3REdm5pTmctIC1xbEpfRWV3YUFMVWRNYUFUYzN6a0ZQcmJsRDdJSlhJazRaZGJqUkNsT3FUZ21KWFRrSExweVN0dVVTcWVhMkppS1NWcXdVdEQ2X2EzVE1LbDV1VW9hb0VWaVNpMDZBdy1yVGNZVlpsOEIxb0czSlFXWG9vOUw5T1YyOUpvRk50WUFyNldVZmc5ckVjN2M5WmVKclozOEpicndaaGlXNzZZallQN0V3UDNRczZsVTNLVXRCcmxZV3RvSzFnYkJ1Qno0aU5yWkMwc3RrVUQza2x0VWJ6bkVBam1qRVVkanl6WkxuZlJBOHBDRGVScmZSN053SEdQZjVmRDNpaUdHbjNlakhneFpFbkZvM2FiSHJFN04xRS1nbWpkS2lXZ0w1OHp0WUFQNHJpSnI0eUV0X2lPWmx3S3FIaFJNaVNTQ1pzdTBRS2JaMzdzU191N1V5RFM5bHV3d1E5N1RtbVJoR2lQelFaeEE1OGc0VjAwMW9YODBVYXJMRGJZOUFETzRlR2N6UUticm50MHduSTBfMEcwMF0tLT48L2c+PC9zdmc+;" parent="1" vertex="1">
                        <mxGeometry x="-1654" y="-1169" width="1652.56" height="2019" as="geometry"/>
                    </mxCell>
                </UserObject>
            </root>
        </mxGraphModel>
    </diagram>
</mxfile>